<?xml version="1.0" encoding="utf-8" standalone="no"?>
<!DOCTYPE svg PUBLIC "-//W3C//DTD SVG 1.1//EN"
  "http://www.w3.org/Graphics/SVG/1.1/DTD/svg11.dtd">
<!-- Created with matplotlib (https://matplotlib.org/) -->
<svg height="288pt" version="1.1" viewBox="0 0 432 288" width="432pt" xmlns="http://www.w3.org/2000/svg" xmlns:xlink="http://www.w3.org/1999/xlink">
 <defs>
  <style type="text/css">
*{stroke-linecap:butt;stroke-linejoin:round;}
  </style>
 </defs>
 <g id="figure_1">
  <g id="patch_1">
   <path d="M 0 288 
L 432 288 
L 432 0 
L 0 0 
z
" style="fill:#ffffff;"/>
  </g>
  <g id="axes_1">
   <g id="patch_2">
    <path d="M 54 252 
L 388.8 252 
L 388.8 34.56 
L 54 34.56 
z
" style="fill:#ffffff;"/>
   </g>
   <g id="matplotlib.axis_1">
    <g id="xtick_1">
     <g id="line2d_1">
      <defs>
       <path d="M 0 0 
L 0 3.5 
" id="m5844e2124a" style="stroke:#000000;stroke-width:0.8;"/>
      </defs>
      <g>
       <use style="stroke:#000000;stroke-width:0.8;" x="69.218182" xlink:href="#m5844e2124a" y="252"/>
      </g>
     </g>
     <g id="text_1">
      <!-- 0 -->
      <defs>
       <path d="M 31.78125 66.40625 
Q 24.171875 66.40625 20.328125 58.90625 
Q 16.5 51.421875 16.5 36.375 
Q 16.5 21.390625 20.328125 13.890625 
Q 24.171875 6.390625 31.78125 6.390625 
Q 39.453125 6.390625 43.28125 13.890625 
Q 47.125 21.390625 47.125 36.375 
Q 47.125 51.421875 43.28125 58.90625 
Q 39.453125 66.40625 31.78125 66.40625 
z
M 31.78125 74.21875 
Q 44.046875 74.21875 50.515625 64.515625 
Q 56.984375 54.828125 56.984375 36.375 
Q 56.984375 17.96875 50.515625 8.265625 
Q 44.046875 -1.421875 31.78125 -1.421875 
Q 19.53125 -1.421875 13.0625 8.265625 
Q 6.59375 17.96875 6.59375 36.375 
Q 6.59375 54.828125 13.0625 64.515625 
Q 19.53125 74.21875 31.78125 74.21875 
z
" id="DejaVuSans-48"/>
      </defs>
      <g transform="translate(66.036932 266.598437)scale(0.1 -0.1)">
       <use xlink:href="#DejaVuSans-48"/>
      </g>
     </g>
    </g>
    <g id="xtick_2">
     <g id="line2d_2">
      <g>
       <use style="stroke:#000000;stroke-width:0.8;" x="130.090909" xlink:href="#m5844e2124a" y="252"/>
      </g>
     </g>
     <g id="text_2">
      <!-- 10 -->
      <defs>
       <path d="M 12.40625 8.296875 
L 28.515625 8.296875 
L 28.515625 63.921875 
L 10.984375 60.40625 
L 10.984375 69.390625 
L 28.421875 72.90625 
L 38.28125 72.90625 
L 38.28125 8.296875 
L 54.390625 8.296875 
L 54.390625 0 
L 12.40625 0 
z
" id="DejaVuSans-49"/>
      </defs>
      <g transform="translate(123.728409 266.598437)scale(0.1 -0.1)">
       <use xlink:href="#DejaVuSans-49"/>
       <use x="63.623047" xlink:href="#DejaVuSans-48"/>
      </g>
     </g>
    </g>
    <g id="xtick_3">
     <g id="line2d_3">
      <g>
       <use style="stroke:#000000;stroke-width:0.8;" x="190.963636" xlink:href="#m5844e2124a" y="252"/>
      </g>
     </g>
     <g id="text_3">
      <!-- 20 -->
      <defs>
       <path d="M 19.1875 8.296875 
L 53.609375 8.296875 
L 53.609375 0 
L 7.328125 0 
L 7.328125 8.296875 
Q 12.9375 14.109375 22.625 23.890625 
Q 32.328125 33.6875 34.8125 36.53125 
Q 39.546875 41.84375 41.421875 45.53125 
Q 43.3125 49.21875 43.3125 52.78125 
Q 43.3125 58.59375 39.234375 62.25 
Q 35.15625 65.921875 28.609375 65.921875 
Q 23.96875 65.921875 18.8125 64.3125 
Q 13.671875 62.703125 7.8125 59.421875 
L 7.8125 69.390625 
Q 13.765625 71.78125 18.9375 73 
Q 24.125 74.21875 28.421875 74.21875 
Q 39.75 74.21875 46.484375 68.546875 
Q 53.21875 62.890625 53.21875 53.421875 
Q 53.21875 48.921875 51.53125 44.890625 
Q 49.859375 40.875 45.40625 35.40625 
Q 44.1875 33.984375 37.640625 27.21875 
Q 31.109375 20.453125 19.1875 8.296875 
z
" id="DejaVuSans-50"/>
      </defs>
      <g transform="translate(184.601136 266.598437)scale(0.1 -0.1)">
       <use xlink:href="#DejaVuSans-50"/>
       <use x="63.623047" xlink:href="#DejaVuSans-48"/>
      </g>
     </g>
    </g>
    <g id="xtick_4">
     <g id="line2d_4">
      <g>
       <use style="stroke:#000000;stroke-width:0.8;" x="251.836364" xlink:href="#m5844e2124a" y="252"/>
      </g>
     </g>
     <g id="text_4">
      <!-- 30 -->
      <defs>
       <path d="M 40.578125 39.3125 
Q 47.65625 37.796875 51.625 33 
Q 55.609375 28.21875 55.609375 21.1875 
Q 55.609375 10.40625 48.1875 4.484375 
Q 40.765625 -1.421875 27.09375 -1.421875 
Q 22.515625 -1.421875 17.65625 -0.515625 
Q 12.796875 0.390625 7.625 2.203125 
L 7.625 11.71875 
Q 11.71875 9.328125 16.59375 8.109375 
Q 21.484375 6.890625 26.8125 6.890625 
Q 36.078125 6.890625 40.9375 10.546875 
Q 45.796875 14.203125 45.796875 21.1875 
Q 45.796875 27.640625 41.28125 31.265625 
Q 36.765625 34.90625 28.71875 34.90625 
L 20.21875 34.90625 
L 20.21875 43.015625 
L 29.109375 43.015625 
Q 36.375 43.015625 40.234375 45.921875 
Q 44.09375 48.828125 44.09375 54.296875 
Q 44.09375 59.90625 40.109375 62.90625 
Q 36.140625 65.921875 28.71875 65.921875 
Q 24.65625 65.921875 20.015625 65.03125 
Q 15.375 64.15625 9.8125 62.3125 
L 9.8125 71.09375 
Q 15.4375 72.65625 20.34375 73.4375 
Q 25.25 74.21875 29.59375 74.21875 
Q 40.828125 74.21875 47.359375 69.109375 
Q 53.90625 64.015625 53.90625 55.328125 
Q 53.90625 49.265625 50.4375 45.09375 
Q 46.96875 40.921875 40.578125 39.3125 
z
" id="DejaVuSans-51"/>
      </defs>
      <g transform="translate(245.473864 266.598437)scale(0.1 -0.1)">
       <use xlink:href="#DejaVuSans-51"/>
       <use x="63.623047" xlink:href="#DejaVuSans-48"/>
      </g>
     </g>
    </g>
    <g id="xtick_5">
     <g id="line2d_5">
      <g>
       <use style="stroke:#000000;stroke-width:0.8;" x="312.709091" xlink:href="#m5844e2124a" y="252"/>
      </g>
     </g>
     <g id="text_5">
      <!-- 40 -->
      <defs>
       <path d="M 37.796875 64.3125 
L 12.890625 25.390625 
L 37.796875 25.390625 
z
M 35.203125 72.90625 
L 47.609375 72.90625 
L 47.609375 25.390625 
L 58.015625 25.390625 
L 58.015625 17.1875 
L 47.609375 17.1875 
L 47.609375 0 
L 37.796875 0 
L 37.796875 17.1875 
L 4.890625 17.1875 
L 4.890625 26.703125 
z
" id="DejaVuSans-52"/>
      </defs>
      <g transform="translate(306.346591 266.598437)scale(0.1 -0.1)">
       <use xlink:href="#DejaVuSans-52"/>
       <use x="63.623047" xlink:href="#DejaVuSans-48"/>
      </g>
     </g>
    </g>
    <g id="xtick_6">
     <g id="line2d_6">
      <g>
       <use style="stroke:#000000;stroke-width:0.8;" x="373.581818" xlink:href="#m5844e2124a" y="252"/>
      </g>
     </g>
     <g id="text_6">
      <!-- 50 -->
      <defs>
       <path d="M 10.796875 72.90625 
L 49.515625 72.90625 
L 49.515625 64.59375 
L 19.828125 64.59375 
L 19.828125 46.734375 
Q 21.96875 47.46875 24.109375 47.828125 
Q 26.265625 48.1875 28.421875 48.1875 
Q 40.625 48.1875 47.75 41.5 
Q 54.890625 34.8125 54.890625 23.390625 
Q 54.890625 11.625 47.5625 5.09375 
Q 40.234375 -1.421875 26.90625 -1.421875 
Q 22.3125 -1.421875 17.546875 -0.640625 
Q 12.796875 0.140625 7.71875 1.703125 
L 7.71875 11.625 
Q 12.109375 9.234375 16.796875 8.0625 
Q 21.484375 6.890625 26.703125 6.890625 
Q 35.15625 6.890625 40.078125 11.328125 
Q 45.015625 15.765625 45.015625 23.390625 
Q 45.015625 31 40.078125 35.4375 
Q 35.15625 39.890625 26.703125 39.890625 
Q 22.75 39.890625 18.8125 39.015625 
Q 14.890625 38.140625 10.796875 36.28125 
z
" id="DejaVuSans-53"/>
      </defs>
      <g transform="translate(367.219318 266.598437)scale(0.1 -0.1)">
       <use xlink:href="#DejaVuSans-53"/>
       <use x="63.623047" xlink:href="#DejaVuSans-48"/>
      </g>
     </g>
    </g>
    <g id="text_7">
     <!-- Time [min] -->
     <defs>
      <path d="M -0.296875 72.90625 
L 61.375 72.90625 
L 61.375 64.59375 
L 35.5 64.59375 
L 35.5 0 
L 25.59375 0 
L 25.59375 64.59375 
L -0.296875 64.59375 
z
" id="DejaVuSans-84"/>
      <path d="M 9.421875 54.6875 
L 18.40625 54.6875 
L 18.40625 0 
L 9.421875 0 
z
M 9.421875 75.984375 
L 18.40625 75.984375 
L 18.40625 64.59375 
L 9.421875 64.59375 
z
" id="DejaVuSans-105"/>
      <path d="M 52 44.1875 
Q 55.375 50.25 60.0625 53.125 
Q 64.75 56 71.09375 56 
Q 79.640625 56 84.28125 50.015625 
Q 88.921875 44.046875 88.921875 33.015625 
L 88.921875 0 
L 79.890625 0 
L 79.890625 32.71875 
Q 79.890625 40.578125 77.09375 44.375 
Q 74.3125 48.1875 68.609375 48.1875 
Q 61.625 48.1875 57.5625 43.546875 
Q 53.515625 38.921875 53.515625 30.90625 
L 53.515625 0 
L 44.484375 0 
L 44.484375 32.71875 
Q 44.484375 40.625 41.703125 44.40625 
Q 38.921875 48.1875 33.109375 48.1875 
Q 26.21875 48.1875 22.15625 43.53125 
Q 18.109375 38.875 18.109375 30.90625 
L 18.109375 0 
L 9.078125 0 
L 9.078125 54.6875 
L 18.109375 54.6875 
L 18.109375 46.1875 
Q 21.1875 51.21875 25.484375 53.609375 
Q 29.78125 56 35.6875 56 
Q 41.65625 56 45.828125 52.96875 
Q 50 49.953125 52 44.1875 
z
" id="DejaVuSans-109"/>
      <path d="M 56.203125 29.59375 
L 56.203125 25.203125 
L 14.890625 25.203125 
Q 15.484375 15.921875 20.484375 11.0625 
Q 25.484375 6.203125 34.421875 6.203125 
Q 39.59375 6.203125 44.453125 7.46875 
Q 49.3125 8.734375 54.109375 11.28125 
L 54.109375 2.78125 
Q 49.265625 0.734375 44.1875 -0.34375 
Q 39.109375 -1.421875 33.890625 -1.421875 
Q 20.796875 -1.421875 13.15625 6.1875 
Q 5.515625 13.8125 5.515625 26.8125 
Q 5.515625 40.234375 12.765625 48.109375 
Q 20.015625 56 32.328125 56 
Q 43.359375 56 49.78125 48.890625 
Q 56.203125 41.796875 56.203125 29.59375 
z
M 47.21875 32.234375 
Q 47.125 39.59375 43.09375 43.984375 
Q 39.0625 48.390625 32.421875 48.390625 
Q 24.90625 48.390625 20.390625 44.140625 
Q 15.875 39.890625 15.1875 32.171875 
z
" id="DejaVuSans-101"/>
      <path id="DejaVuSans-32"/>
      <path d="M 8.59375 75.984375 
L 29.296875 75.984375 
L 29.296875 69 
L 17.578125 69 
L 17.578125 -6.203125 
L 29.296875 -6.203125 
L 29.296875 -13.1875 
L 8.59375 -13.1875 
z
" id="DejaVuSans-91"/>
      <path d="M 54.890625 33.015625 
L 54.890625 0 
L 45.90625 0 
L 45.90625 32.71875 
Q 45.90625 40.484375 42.875 44.328125 
Q 39.84375 48.1875 33.796875 48.1875 
Q 26.515625 48.1875 22.3125 43.546875 
Q 18.109375 38.921875 18.109375 30.90625 
L 18.109375 0 
L 9.078125 0 
L 9.078125 54.6875 
L 18.109375 54.6875 
L 18.109375 46.1875 
Q 21.34375 51.125 25.703125 53.5625 
Q 30.078125 56 35.796875 56 
Q 45.21875 56 50.046875 50.171875 
Q 54.890625 44.34375 54.890625 33.015625 
z
" id="DejaVuSans-110"/>
      <path d="M 30.421875 75.984375 
L 30.421875 -13.1875 
L 9.71875 -13.1875 
L 9.71875 -6.203125 
L 21.390625 -6.203125 
L 21.390625 69 
L 9.71875 69 
L 9.71875 75.984375 
z
" id="DejaVuSans-93"/>
     </defs>
     <g transform="translate(194.09375 280.276563)scale(0.1 -0.1)">
      <use xlink:href="#DejaVuSans-84"/>
      <use x="61.037109" xlink:href="#DejaVuSans-105"/>
      <use x="88.820312" xlink:href="#DejaVuSans-109"/>
      <use x="186.232422" xlink:href="#DejaVuSans-101"/>
      <use x="247.755859" xlink:href="#DejaVuSans-32"/>
      <use x="279.542969" xlink:href="#DejaVuSans-91"/>
      <use x="318.556641" xlink:href="#DejaVuSans-109"/>
      <use x="415.96875" xlink:href="#DejaVuSans-105"/>
      <use x="443.751953" xlink:href="#DejaVuSans-110"/>
      <use x="507.130859" xlink:href="#DejaVuSans-93"/>
     </g>
    </g>
   </g>
   <g id="matplotlib.axis_2">
    <g id="ytick_1">
     <g id="line2d_7">
      <defs>
       <path d="M 0 0 
L -3.5 0 
" id="ma6f74ace82" style="stroke:#000000;stroke-width:0.8;"/>
      </defs>
      <g>
       <use style="stroke:#000000;stroke-width:0.8;" x="54" xlink:href="#ma6f74ace82" y="242.116369"/>
      </g>
     </g>
     <g id="text_8">
      <!-- 0.0 -->
      <defs>
       <path d="M 10.6875 12.40625 
L 21 12.40625 
L 21 0 
L 10.6875 0 
z
" id="DejaVuSans-46"/>
      </defs>
      <g transform="translate(31.096875 245.915588)scale(0.1 -0.1)">
       <use xlink:href="#DejaVuSans-48"/>
       <use x="63.623047" xlink:href="#DejaVuSans-46"/>
       <use x="95.410156" xlink:href="#DejaVuSans-48"/>
      </g>
     </g>
    </g>
    <g id="ytick_2">
     <g id="line2d_8">
      <g>
       <use style="stroke:#000000;stroke-width:0.8;" x="54" xlink:href="#ma6f74ace82" y="199.207751"/>
      </g>
     </g>
     <g id="text_9">
      <!-- 0.2 -->
      <g transform="translate(31.096875 203.00697)scale(0.1 -0.1)">
       <use xlink:href="#DejaVuSans-48"/>
       <use x="63.623047" xlink:href="#DejaVuSans-46"/>
       <use x="95.410156" xlink:href="#DejaVuSans-50"/>
      </g>
     </g>
    </g>
    <g id="ytick_3">
     <g id="line2d_9">
      <g>
       <use style="stroke:#000000;stroke-width:0.8;" x="54" xlink:href="#ma6f74ace82" y="156.299134"/>
      </g>
     </g>
     <g id="text_10">
      <!-- 0.4 -->
      <g transform="translate(31.096875 160.098352)scale(0.1 -0.1)">
       <use xlink:href="#DejaVuSans-48"/>
       <use x="63.623047" xlink:href="#DejaVuSans-46"/>
       <use x="95.410156" xlink:href="#DejaVuSans-52"/>
      </g>
     </g>
    </g>
    <g id="ytick_4">
     <g id="line2d_10">
      <g>
       <use style="stroke:#000000;stroke-width:0.8;" x="54" xlink:href="#ma6f74ace82" y="113.390516"/>
      </g>
     </g>
     <g id="text_11">
      <!-- 0.6 -->
      <defs>
       <path d="M 33.015625 40.375 
Q 26.375 40.375 22.484375 35.828125 
Q 18.609375 31.296875 18.609375 23.390625 
Q 18.609375 15.53125 22.484375 10.953125 
Q 26.375 6.390625 33.015625 6.390625 
Q 39.65625 6.390625 43.53125 10.953125 
Q 47.40625 15.53125 47.40625 23.390625 
Q 47.40625 31.296875 43.53125 35.828125 
Q 39.65625 40.375 33.015625 40.375 
z
M 52.59375 71.296875 
L 52.59375 62.3125 
Q 48.875 64.0625 45.09375 64.984375 
Q 41.3125 65.921875 37.59375 65.921875 
Q 27.828125 65.921875 22.671875 59.328125 
Q 17.53125 52.734375 16.796875 39.40625 
Q 19.671875 43.65625 24.015625 45.921875 
Q 28.375 48.1875 33.59375 48.1875 
Q 44.578125 48.1875 50.953125 41.515625 
Q 57.328125 34.859375 57.328125 23.390625 
Q 57.328125 12.15625 50.6875 5.359375 
Q 44.046875 -1.421875 33.015625 -1.421875 
Q 20.359375 -1.421875 13.671875 8.265625 
Q 6.984375 17.96875 6.984375 36.375 
Q 6.984375 53.65625 15.1875 63.9375 
Q 23.390625 74.21875 37.203125 74.21875 
Q 40.921875 74.21875 44.703125 73.484375 
Q 48.484375 72.75 52.59375 71.296875 
z
" id="DejaVuSans-54"/>
      </defs>
      <g transform="translate(31.096875 117.189734)scale(0.1 -0.1)">
       <use xlink:href="#DejaVuSans-48"/>
       <use x="63.623047" xlink:href="#DejaVuSans-46"/>
       <use x="95.410156" xlink:href="#DejaVuSans-54"/>
      </g>
     </g>
    </g>
    <g id="ytick_5">
     <g id="line2d_11">
      <g>
       <use style="stroke:#000000;stroke-width:0.8;" x="54" xlink:href="#ma6f74ace82" y="70.481898"/>
      </g>
     </g>
     <g id="text_12">
      <!-- 0.8 -->
      <defs>
       <path d="M 31.78125 34.625 
Q 24.75 34.625 20.71875 30.859375 
Q 16.703125 27.09375 16.703125 20.515625 
Q 16.703125 13.921875 20.71875 10.15625 
Q 24.75 6.390625 31.78125 6.390625 
Q 38.8125 6.390625 42.859375 10.171875 
Q 46.921875 13.96875 46.921875 20.515625 
Q 46.921875 27.09375 42.890625 30.859375 
Q 38.875 34.625 31.78125 34.625 
z
M 21.921875 38.8125 
Q 15.578125 40.375 12.03125 44.71875 
Q 8.5 49.078125 8.5 55.328125 
Q 8.5 64.0625 14.71875 69.140625 
Q 20.953125 74.21875 31.78125 74.21875 
Q 42.671875 74.21875 48.875 69.140625 
Q 55.078125 64.0625 55.078125 55.328125 
Q 55.078125 49.078125 51.53125 44.71875 
Q 48 40.375 41.703125 38.8125 
Q 48.828125 37.15625 52.796875 32.3125 
Q 56.78125 27.484375 56.78125 20.515625 
Q 56.78125 9.90625 50.3125 4.234375 
Q 43.84375 -1.421875 31.78125 -1.421875 
Q 19.734375 -1.421875 13.25 4.234375 
Q 6.78125 9.90625 6.78125 20.515625 
Q 6.78125 27.484375 10.78125 32.3125 
Q 14.796875 37.15625 21.921875 38.8125 
z
M 18.3125 54.390625 
Q 18.3125 48.734375 21.84375 45.5625 
Q 25.390625 42.390625 31.78125 42.390625 
Q 38.140625 42.390625 41.71875 45.5625 
Q 45.3125 48.734375 45.3125 54.390625 
Q 45.3125 60.0625 41.71875 63.234375 
Q 38.140625 66.40625 31.78125 66.40625 
Q 25.390625 66.40625 21.84375 63.234375 
Q 18.3125 60.0625 18.3125 54.390625 
z
" id="DejaVuSans-56"/>
      </defs>
      <g transform="translate(31.096875 74.281116)scale(0.1 -0.1)">
       <use xlink:href="#DejaVuSans-48"/>
       <use x="63.623047" xlink:href="#DejaVuSans-46"/>
       <use x="95.410156" xlink:href="#DejaVuSans-56"/>
      </g>
     </g>
    </g>
    <g id="text_13">
     <!-- Composition [$x_{eth}$] -->
     <defs>
      <path d="M 64.40625 67.28125 
L 64.40625 56.890625 
Q 59.421875 61.53125 53.78125 63.8125 
Q 48.140625 66.109375 41.796875 66.109375 
Q 29.296875 66.109375 22.65625 58.46875 
Q 16.015625 50.828125 16.015625 36.375 
Q 16.015625 21.96875 22.65625 14.328125 
Q 29.296875 6.6875 41.796875 6.6875 
Q 48.140625 6.6875 53.78125 8.984375 
Q 59.421875 11.28125 64.40625 15.921875 
L 64.40625 5.609375 
Q 59.234375 2.09375 53.4375 0.328125 
Q 47.65625 -1.421875 41.21875 -1.421875 
Q 24.65625 -1.421875 15.125 8.703125 
Q 5.609375 18.84375 5.609375 36.375 
Q 5.609375 53.953125 15.125 64.078125 
Q 24.65625 74.21875 41.21875 74.21875 
Q 47.75 74.21875 53.53125 72.484375 
Q 59.328125 70.75 64.40625 67.28125 
z
" id="DejaVuSans-67"/>
      <path d="M 30.609375 48.390625 
Q 23.390625 48.390625 19.1875 42.75 
Q 14.984375 37.109375 14.984375 27.296875 
Q 14.984375 17.484375 19.15625 11.84375 
Q 23.34375 6.203125 30.609375 6.203125 
Q 37.796875 6.203125 41.984375 11.859375 
Q 46.1875 17.53125 46.1875 27.296875 
Q 46.1875 37.015625 41.984375 42.703125 
Q 37.796875 48.390625 30.609375 48.390625 
z
M 30.609375 56 
Q 42.328125 56 49.015625 48.375 
Q 55.71875 40.765625 55.71875 27.296875 
Q 55.71875 13.875 49.015625 6.21875 
Q 42.328125 -1.421875 30.609375 -1.421875 
Q 18.84375 -1.421875 12.171875 6.21875 
Q 5.515625 13.875 5.515625 27.296875 
Q 5.515625 40.765625 12.171875 48.375 
Q 18.84375 56 30.609375 56 
z
" id="DejaVuSans-111"/>
      <path d="M 18.109375 8.203125 
L 18.109375 -20.796875 
L 9.078125 -20.796875 
L 9.078125 54.6875 
L 18.109375 54.6875 
L 18.109375 46.390625 
Q 20.953125 51.265625 25.265625 53.625 
Q 29.59375 56 35.59375 56 
Q 45.5625 56 51.78125 48.09375 
Q 58.015625 40.1875 58.015625 27.296875 
Q 58.015625 14.40625 51.78125 6.484375 
Q 45.5625 -1.421875 35.59375 -1.421875 
Q 29.59375 -1.421875 25.265625 0.953125 
Q 20.953125 3.328125 18.109375 8.203125 
z
M 48.6875 27.296875 
Q 48.6875 37.203125 44.609375 42.84375 
Q 40.53125 48.484375 33.40625 48.484375 
Q 26.265625 48.484375 22.1875 42.84375 
Q 18.109375 37.203125 18.109375 27.296875 
Q 18.109375 17.390625 22.1875 11.75 
Q 26.265625 6.109375 33.40625 6.109375 
Q 40.53125 6.109375 44.609375 11.75 
Q 48.6875 17.390625 48.6875 27.296875 
z
" id="DejaVuSans-112"/>
      <path d="M 44.28125 53.078125 
L 44.28125 44.578125 
Q 40.484375 46.53125 36.375 47.5 
Q 32.28125 48.484375 27.875 48.484375 
Q 21.1875 48.484375 17.84375 46.4375 
Q 14.5 44.390625 14.5 40.28125 
Q 14.5 37.15625 16.890625 35.375 
Q 19.28125 33.59375 26.515625 31.984375 
L 29.59375 31.296875 
Q 39.15625 29.25 43.1875 25.515625 
Q 47.21875 21.78125 47.21875 15.09375 
Q 47.21875 7.46875 41.1875 3.015625 
Q 35.15625 -1.421875 24.609375 -1.421875 
Q 20.21875 -1.421875 15.453125 -0.5625 
Q 10.6875 0.296875 5.421875 2 
L 5.421875 11.28125 
Q 10.40625 8.6875 15.234375 7.390625 
Q 20.0625 6.109375 24.8125 6.109375 
Q 31.15625 6.109375 34.5625 8.28125 
Q 37.984375 10.453125 37.984375 14.40625 
Q 37.984375 18.0625 35.515625 20.015625 
Q 33.0625 21.96875 24.703125 23.78125 
L 21.578125 24.515625 
Q 13.234375 26.265625 9.515625 29.90625 
Q 5.8125 33.546875 5.8125 39.890625 
Q 5.8125 47.609375 11.28125 51.796875 
Q 16.75 56 26.8125 56 
Q 31.78125 56 36.171875 55.265625 
Q 40.578125 54.546875 44.28125 53.078125 
z
" id="DejaVuSans-115"/>
      <path d="M 18.3125 70.21875 
L 18.3125 54.6875 
L 36.8125 54.6875 
L 36.8125 47.703125 
L 18.3125 47.703125 
L 18.3125 18.015625 
Q 18.3125 11.328125 20.140625 9.421875 
Q 21.96875 7.515625 27.59375 7.515625 
L 36.8125 7.515625 
L 36.8125 0 
L 27.59375 0 
Q 17.1875 0 13.234375 3.875 
Q 9.28125 7.765625 9.28125 18.015625 
L 9.28125 47.703125 
L 2.6875 47.703125 
L 2.6875 54.6875 
L 9.28125 54.6875 
L 9.28125 70.21875 
z
" id="DejaVuSans-116"/>
      <path d="M 60.015625 54.6875 
L 34.90625 27.875 
L 50.296875 0 
L 39.984375 0 
L 28.421875 21.6875 
L 8.296875 0 
L -2.59375 0 
L 24.3125 28.8125 
L 10.015625 54.6875 
L 20.3125 54.6875 
L 30.8125 34.90625 
L 49.125 54.6875 
z
" id="DejaVuSans-Oblique-120"/>
      <path d="M 48.09375 32.234375 
Q 48.25 33.015625 48.3125 33.84375 
Q 48.390625 34.671875 48.390625 35.5 
Q 48.390625 41.453125 44.890625 44.921875 
Q 41.40625 48.390625 35.40625 48.390625 
Q 28.71875 48.390625 23.578125 44.15625 
Q 18.453125 39.9375 15.828125 32.171875 
z
M 55.90625 25.203125 
L 14.109375 25.203125 
Q 13.8125 23.34375 13.71875 22.265625 
Q 13.625 21.1875 13.625 20.40625 
Q 13.625 13.625 17.796875 9.90625 
Q 21.96875 6.203125 29.59375 6.203125 
Q 35.453125 6.203125 40.671875 7.515625 
Q 45.90625 8.84375 50.390625 11.375 
L 48.6875 2.484375 
Q 43.84375 0.53125 38.6875 -0.4375 
Q 33.546875 -1.421875 28.21875 -1.421875 
Q 16.84375 -1.421875 10.71875 4.015625 
Q 4.59375 9.46875 4.59375 19.484375 
Q 4.59375 28.03125 7.640625 35.375 
Q 10.6875 42.71875 16.609375 48.484375 
Q 20.40625 52.09375 25.65625 54.046875 
Q 30.90625 56 36.8125 56 
Q 46.09375 56 51.578125 50.4375 
Q 57.078125 44.875 57.078125 35.5 
Q 57.078125 33.25 56.78125 30.6875 
Q 56.5 28.125 55.90625 25.203125 
z
" id="DejaVuSans-Oblique-101"/>
      <path d="M 42.28125 54.6875 
L 40.921875 47.703125 
L 23 47.703125 
L 17.1875 18.015625 
Q 16.890625 16.359375 16.75 15.234375 
Q 16.609375 14.109375 16.609375 13.484375 
Q 16.609375 10.359375 18.484375 8.9375 
Q 20.359375 7.515625 24.515625 7.515625 
L 33.59375 7.515625 
L 32.078125 0 
L 23.484375 0 
Q 15.484375 0 11.546875 3.125 
Q 7.625 6.25 7.625 12.59375 
Q 7.625 13.71875 7.765625 15.0625 
Q 7.90625 16.40625 8.203125 18.015625 
L 14.015625 47.703125 
L 6.390625 47.703125 
L 7.8125 54.6875 
L 15.28125 54.6875 
L 18.3125 70.21875 
L 27.296875 70.21875 
L 24.3125 54.6875 
z
" id="DejaVuSans-Oblique-116"/>
      <path d="M 55.71875 33.015625 
L 49.3125 0 
L 40.28125 0 
L 46.6875 32.671875 
Q 47.125 34.96875 47.359375 36.71875 
Q 47.609375 38.484375 47.609375 39.5 
Q 47.609375 43.609375 45.015625 45.890625 
Q 42.4375 48.1875 37.796875 48.1875 
Q 30.5625 48.1875 25.265625 43.296875 
Q 19.96875 38.421875 18.40625 30.328125 
L 12.5 0 
L 3.515625 0 
L 18.3125 75.984375 
L 27.296875 75.984375 
L 21.484375 46.09375 
Q 24.90625 50.6875 30.21875 53.34375 
Q 35.546875 56 41.40625 56 
Q 48.640625 56 52.609375 52.09375 
Q 56.59375 48.1875 56.59375 41.109375 
Q 56.59375 39.359375 56.375 37.359375 
Q 56.15625 35.359375 55.71875 33.015625 
z
" id="DejaVuSans-Oblique-104"/>
     </defs>
     <g transform="translate(24.996875 188.88)rotate(-90)scale(0.1 -0.1)">
      <use transform="translate(0 0.015625)" xlink:href="#DejaVuSans-67"/>
      <use transform="translate(69.824219 0.015625)" xlink:href="#DejaVuSans-111"/>
      <use transform="translate(131.005859 0.015625)" xlink:href="#DejaVuSans-109"/>
      <use transform="translate(228.417969 0.015625)" xlink:href="#DejaVuSans-112"/>
      <use transform="translate(291.894531 0.015625)" xlink:href="#DejaVuSans-111"/>
      <use transform="translate(353.076172 0.015625)" xlink:href="#DejaVuSans-115"/>
      <use transform="translate(405.175781 0.015625)" xlink:href="#DejaVuSans-105"/>
      <use transform="translate(432.958984 0.015625)" xlink:href="#DejaVuSans-116"/>
      <use transform="translate(472.167969 0.015625)" xlink:href="#DejaVuSans-105"/>
      <use transform="translate(499.951172 0.015625)" xlink:href="#DejaVuSans-111"/>
      <use transform="translate(561.132812 0.015625)" xlink:href="#DejaVuSans-110"/>
      <use transform="translate(624.511719 0.015625)" xlink:href="#DejaVuSans-32"/>
      <use transform="translate(656.298828 0.015625)" xlink:href="#DejaVuSans-91"/>
      <use transform="translate(695.3125 0.015625)" xlink:href="#DejaVuSans-Oblique-120"/>
      <use transform="translate(754.492188 -16.390625)scale(0.7)" xlink:href="#DejaVuSans-Oblique-101"/>
      <use transform="translate(797.558594 -16.390625)scale(0.7)" xlink:href="#DejaVuSans-Oblique-116"/>
      <use transform="translate(825.004883 -16.390625)scale(0.7)" xlink:href="#DejaVuSans-Oblique-104"/>
      <use transform="translate(872.104492 0.015625)" xlink:href="#DejaVuSans-93"/>
     </g>
    </g>
   </g>
   <g id="line2d_12">
    <path clip-path="url(#pa432a28d8f)" d="M 69.218182 220.66206 
L 72.292562 136.246972 
L 75.366942 115.810212 
L 78.441322 105.721217 
L 81.515702 99.746044 
L 84.590083 95.715264 
L 87.664463 93.039841 
L 90.738843 91.374673 
L 93.813223 90.393476 
L 96.887603 89.827751 
L 99.961983 89.504317 
L 103.036364 89.320097 
L 106.110744 89.215377 
L 109.185124 89.155918 
L 112.259504 89.122184 
L 115.333884 89.103053 
L 118.408264 89.092209 
L 121.482645 89.086062 
L 124.557025 89.08258 
L 127.631405 89.080606 
L 130.705785 89.077254 
L 133.780165 89.732357 
L 136.854545 91.168881 
L 139.928926 92.286342 
L 143.003306 72.477759 
L 146.077686 52.933032 
L 149.152066 48.301156 
L 152.226446 46.432312 
L 155.300826 45.535376 
L 158.375207 45.017299 
L 161.449587 44.718753 
L 164.523967 44.554692 
L 167.598347 44.471711 
L 170.672727 44.443636 
L 173.747107 44.464716 
L 176.821488 44.552236 
L 179.895868 44.751153 
L 182.970248 45.108405 
L 186.044628 45.771073 
L 189.119008 47.166799 
L 192.193388 49.498281 
L 195.267769 53.068277 
L 198.342149 57.393497 
L 201.416529 61.390514 
L 204.490909 64.787833 
L 207.565289 67.719893 
L 210.639669 70.399515 
L 213.71405 72.513174 
L 216.78843 74.14374 
L 219.86281 75.403331 
L 222.93719 76.44345 
L 226.01157 77.252953 
L 229.08595 77.822639 
L 232.160331 78.229203 
L 235.234711 78.505548 
L 238.309091 78.690549 
L 241.383471 78.814238 
L 244.457851 78.896921 
L 247.532231 78.952191 
L 250.606612 78.989137 
L 253.680992 79.013834 
L 256.755372 79.030343 
L 259.829752 79.041378 
L 262.904132 79.048754 
L 265.978512 79.053686 
L 269.052893 79.056981 
L 272.127273 79.059185 
L 275.201653 79.060658 
L 278.276033 79.061642 
L 281.350413 79.0623 
L 284.424793 79.06274 
L 287.499174 79.063034 
L 290.573554 79.063231 
L 293.647934 79.063362 
L 296.722314 79.06345 
L 299.796694 79.063508 
L 302.871074 79.063548 
L 305.945455 79.063574 
L 309.019835 79.063592 
L 312.094215 79.063603 
L 315.168595 79.063612 
L 318.242975 79.063617 
L 321.317355 79.06362 
L 324.391736 79.063622 
L 327.466116 79.063624 
L 330.540496 79.063625 
L 333.614876 79.063626 
L 336.689256 79.063626 
L 339.763636 79.063627 
L 342.838017 79.063627 
L 345.912397 79.063627 
L 348.986777 79.063627 
L 352.061157 79.063627 
L 355.135537 79.063627 
L 358.209917 79.063627 
L 361.284298 79.063627 
L 364.358678 79.063627 
L 367.433058 79.063627 
L 370.507438 79.063627 
L 373.581818 79.063627 
" style="fill:none;stroke:#1f77b4;stroke-linecap:square;stroke-width:1.5;"/>
   </g>
   <g id="line2d_13">
    <path clip-path="url(#pa432a28d8f)" d="M 69.218182 220.66206 
L 72.292562 188.56372 
L 75.366942 157.169377 
L 78.441322 137.194621 
L 81.515702 124.765775 
L 84.590083 117.546031 
L 87.664463 113.276564 
L 90.738843 110.717292 
L 93.813223 109.232729 
L 96.887603 108.381905 
L 99.961983 107.89669 
L 103.036364 107.620661 
L 106.110744 107.46386 
L 109.185124 107.374871 
L 112.259504 107.324394 
L 115.333884 107.295778 
L 118.408264 107.279555 
L 121.482645 107.270365 
L 124.557025 107.265155 
L 127.631405 107.262205 
L 130.705785 107.282762 
L 133.780165 109.400752 
L 136.854545 112.197447 
L 139.928926 113.947941 
L 143.003306 114.228585 
L 146.077686 106.132385 
L 149.152066 101.893534 
L 152.226446 99.914274 
L 155.300826 98.8754 
L 158.375207 98.242247 
L 161.449587 97.886449 
L 164.523967 97.695477 
L 167.598347 97.605695 
L 170.672727 97.590742 
L 173.747107 97.652693 
L 176.821488 97.832073 
L 179.895868 98.219196 
L 182.970248 98.852338 
L 186.044628 100.162628 
L 189.119008 102.749938 
L 192.193388 106.90207 
L 195.267769 112.983535 
L 198.342149 119.759553 
L 201.416529 126.405797 
L 204.490909 132.467822 
L 207.565289 138.641602 
L 210.639669 143.646196 
L 213.71405 147.494379 
L 216.78843 150.476054 
L 219.86281 152.768942 
L 222.93719 154.743265 
L 226.01157 156.179011 
L 229.08595 157.168366 
L 232.160331 157.828613 
L 235.234711 158.268884 
L 238.309091 158.5632 
L 241.383471 158.759951 
L 244.457851 158.891459 
L 247.532231 158.979385 
L 250.606612 159.038144 
L 253.680992 159.077427 
L 256.755372 159.103687 
L 259.829752 159.121235 
L 262.904132 159.132974 
L 265.978512 159.140809 
L 269.052893 159.14606 
L 272.127273 159.149556 
L 275.201653 159.151906 
L 278.276033 159.153465 
L 281.350413 159.154517 
L 284.424793 159.155218 
L 287.499174 159.155687 
L 290.573554 159.155995 
L 293.647934 159.156209 
L 296.722314 159.156341 
L 299.796694 159.156443 
L 302.871074 159.156495 
L 305.945455 159.156549 
L 309.019835 159.156565 
L 312.094215 159.156597 
L 315.168595 159.156596 
L 318.242975 159.156618 
L 321.317355 159.156618 
L 324.391736 159.156627 
L 327.466116 159.156621 
L 330.540496 159.15663 
L 333.614876 159.156621 
L 336.689256 159.156631 
L 339.763636 159.15662 
L 342.838017 159.156633 
L 345.912397 159.156619 
L 348.986777 159.156633 
L 352.061157 159.156618 
L 355.135537 159.156634 
L 358.209917 159.156625 
L 361.284298 159.156633 
L 364.358678 159.156624 
L 367.433058 159.156631 
L 370.507438 159.156623 
L 373.581818 159.15663 
" style="fill:none;stroke:#ff7f0e;stroke-linecap:square;stroke-width:1.5;"/>
   </g>
   <g id="line2d_14">
    <path clip-path="url(#pa432a28d8f)" d="M 69.218182 220.66206 
L 72.292562 190.721721 
L 75.366942 164.770151 
L 78.441322 147.507208 
L 81.515702 136.466973 
L 84.590083 129.490911 
L 87.664463 125.460578 
L 90.738843 123.229827 
L 93.813223 121.98076 
L 96.887603 121.274415 
L 99.961983 120.874037 
L 103.036364 120.647011 
L 106.110744 120.518302 
L 109.185124 120.445342 
L 112.259504 120.404003 
L 115.333884 120.380565 
L 118.408264 120.3673 
L 121.482645 120.35977 
L 124.557025 120.355513 
L 127.631405 120.353093 
L 130.705785 120.846943 
L 133.780165 127.350602 
L 136.854545 131.161563 
L 139.928926 133.44474 
L 143.003306 135.598641 
L 146.077686 135.07312 
L 149.152066 132.863848 
L 152.226446 131.170431 
L 155.300826 130.140915 
L 158.375207 129.630812 
L 161.449587 129.364071 
L 164.523967 129.233993 
L 167.598347 129.197163 
L 170.672727 129.250436 
L 173.747107 129.428817 
L 176.821488 129.827403 
L 179.895868 130.660804 
L 182.970248 132.45741 
L 186.044628 135.990076 
L 189.119008 141.669874 
L 192.193388 150.508363 
L 195.267769 161.59143 
L 198.342149 171.855195 
L 201.416529 181.310376 
L 204.490909 189.350039 
L 207.565289 195.160818 
L 210.639669 199.328597 
L 213.71405 202.429634 
L 216.78843 204.897107 
L 219.86281 206.692075 
L 222.93719 207.677136 
L 226.01157 208.28287 
L 229.08595 208.691033 
L 232.160331 208.966447 
L 235.234711 209.15019 
L 238.309091 209.273034 
L 241.383471 209.355013 
L 244.457851 209.409992 
L 247.532231 209.446455 
L 250.606612 209.471089 
L 253.680992 209.487466 
L 256.755372 209.498388 
L 259.829752 209.505798 
L 262.904132 209.510586 
L 265.978512 209.513993 
L 269.052893 209.516034 
L 272.127273 209.517638 
L 275.201653 209.518482 
L 278.276033 209.519263 
L 281.350413 209.519596 
L 284.424793 209.519887 
L 287.499174 209.520054 
L 290.573554 209.520276 
L 293.647934 209.52027 
L 296.722314 209.520462 
L 299.796694 209.520357 
L 302.871074 209.520567 
L 305.945455 209.520377 
L 309.019835 209.520609 
L 312.094215 209.520391 
L 315.168595 209.520626 
L 318.242975 209.520411 
L 321.317355 209.520509 
L 324.391736 209.520412 
L 327.466116 209.520548 
L 330.540496 209.520424 
L 333.614876 209.520581 
L 336.689256 209.520413 
L 339.763636 209.520616 
L 342.838017 209.52039 
L 345.912397 209.520629 
L 348.986777 209.520382 
L 352.061157 209.520646 
L 355.135537 209.520381 
L 358.209917 209.520534 
L 361.284298 209.520399 
L 364.358678 209.520558 
L 367.433058 209.520431 
L 370.507438 209.520585 
L 373.581818 209.520456 
" style="fill:none;stroke:#2ca02c;stroke-linecap:square;stroke-width:1.5;"/>
   </g>
   <g id="line2d_15">
    <path clip-path="url(#pa432a28d8f)" d="M 69.218182 220.66206 
L 72.292562 157.119716 
L 75.366942 145.719839 
L 78.441322 140.129428 
L 81.515702 136.702447 
L 84.590083 134.532952 
L 87.664463 133.211712 
L 90.738843 132.435433 
L 93.813223 132.016126 
L 96.887603 131.78761 
L 99.961983 131.66114 
L 103.036364 131.590599 
L 106.110744 131.551014 
L 109.185124 131.528816 
L 112.259504 131.516202 
L 115.333884 131.509204 
L 118.408264 131.505134 
L 121.482645 131.502951 
L 124.557025 131.501636 
L 127.631405 131.500956 
L 130.705785 138.986635 
L 133.780165 151.020457 
L 136.854545 153.146301 
L 139.928926 154.019592 
L 143.003306 154.527425 
L 146.077686 154.746987 
L 149.152066 154.36179 
L 152.226446 153.959281 
L 155.300826 153.676006 
L 158.375207 153.525763 
L 161.449587 153.462646 
L 164.523967 153.467467 
L 167.598347 153.55174 
L 170.672727 153.760387 
L 173.747107 154.219588 
L 176.821488 155.116762 
L 179.895868 157.007156 
L 182.970248 160.2565 
L 186.044628 166.76105 
L 189.119008 177.206794 
L 192.193388 192.554142 
L 195.267769 203.613801 
L 198.342149 210.668187 
L 201.416529 214.781138 
L 204.490909 217.69184 
L 207.565289 219.40584 
L 210.639669 220.592932 
L 213.71405 221.454648 
L 216.78843 221.902088 
L 219.86281 222.19869 
L 222.93719 222.376037 
L 226.01157 222.478764 
L 229.08595 222.546895 
L 232.160331 222.593047 
L 235.234711 222.624195 
L 238.309091 222.644317 
L 241.383471 222.658759 
L 244.457851 222.667012 
L 247.532231 222.674738 
L 250.606612 222.677911 
L 253.680992 222.680702 
L 256.755372 222.682764 
L 259.829752 222.683294 
L 262.904132 222.684941 
L 265.978512 222.684451 
L 269.052893 222.685941 
L 272.127273 222.685102 
L 275.201653 222.68629 
L 278.276033 222.685433 
L 281.350413 222.686297 
L 284.424793 222.686368 
L 287.499174 222.686612 
L 290.573554 222.685932 
L 293.647934 222.686664 
L 296.722314 222.685632 
L 299.796694 222.686774 
L 302.871074 222.685366 
L 305.945455 222.686971 
L 309.019835 222.685281 
L 312.094215 222.687014 
L 315.168595 222.685266 
L 318.242975 222.686907 
L 321.317355 222.686183 
L 324.391736 222.686897 
L 327.466116 222.685859 
L 330.540496 222.686793 
L 333.614876 222.685575 
L 336.689256 222.686885 
L 339.763636 222.685339 
L 342.838017 222.68708 
L 345.912397 222.685253 
L 348.986777 222.687161 
L 352.061157 222.685148 
L 355.135537 222.687179 
L 358.209917 222.68602 
L 361.284298 222.687043 
L 364.358678 222.685828 
L 367.433058 222.6868 
L 370.507438 222.685615 
L 373.581818 222.686625 
" style="fill:none;stroke:#d62728;stroke-linecap:square;stroke-width:1.5;"/>
   </g>
   <g id="line2d_16">
    <path clip-path="url(#pa432a28d8f)" d="M 69.218182 220.66206 
L 72.292562 172.135748 
L 75.366942 152.76732 
L 78.441322 144.458418 
L 81.515702 139.406029 
L 84.590083 136.170711 
L 87.664463 134.165367 
L 90.738843 132.977837 
L 93.813223 132.276397 
L 96.887603 131.917265 
L 99.961983 131.727518 
L 103.036364 131.625606 
L 106.110744 131.570325 
L 109.185124 131.539304 
L 112.259504 131.522562 
L 115.333884 131.512654 
L 118.408264 131.507621 
L 121.482645 131.504221 
L 124.557025 131.502658 
L 127.631405 131.501475 
L 130.705785 132.936462 
L 133.780165 147.739043 
L 136.854545 152.003948 
L 139.928926 153.536547 
L 143.003306 154.241667 
L 146.077686 154.664673 
L 149.152066 154.485737 
L 152.226446 154.128118 
L 155.300826 153.835644 
L 158.375207 153.688006 
L 161.449587 153.692479 
L 164.523967 153.876529 
L 167.598347 154.366239 
L 170.672727 155.369622 
L 173.747107 157.521734 
L 176.821488 161.331869 
L 179.895868 169.414329 
L 182.970248 184.791816 
L 186.044628 206.816495 
L 189.119008 223.280943 
L 192.193388 230.749396 
L 195.267769 234.41176 
L 198.342149 236.779916 
L 201.416529 238.109194 
L 204.490909 238.550226 
L 207.565289 238.806253 
L 210.639669 238.980208 
L 213.71405 239.109249 
L 216.78843 239.1764 
L 219.86281 239.220631 
L 222.93719 239.24703 
L 226.01157 239.262449 
L 229.08595 239.272736 
L 232.160331 239.279598 
L 235.234711 239.283732 
L 238.309091 239.287475 
L 241.383471 239.288522 
L 244.457851 239.291275 
L 247.532231 239.289909 
L 250.606612 239.291872 
L 253.680992 239.292228 
L 256.755372 239.292158 
L 259.829752 239.293387 
L 262.904132 239.292279 
L 265.978512 239.293887 
L 269.052893 239.292318 
L 272.127273 239.29394 
L 275.201653 239.292451 
L 278.276033 239.293874 
L 281.350413 239.292746 
L 284.424793 239.292714 
L 287.499174 239.292421 
L 290.573554 239.293447 
L 293.647934 239.292386 
L 296.722314 239.29394 
L 299.796694 239.292242 
L 302.871074 239.294327 
L 305.945455 239.291991 
L 309.019835 239.294458 
L 312.094215 239.29192 
L 315.168595 239.294447 
L 318.242975 239.292089 
L 321.317355 239.293115 
L 324.391736 239.292104 
L 327.466116 239.293594 
L 330.540496 239.292232 
L 333.614876 239.294039 
L 336.689256 239.292095 
L 339.763636 239.29437 
L 342.838017 239.291848 
L 345.912397 239.294515 
L 348.986777 239.291707 
L 352.061157 239.294644 
L 355.135537 239.291701 
L 358.209917 239.293375 
L 361.284298 239.291905 
L 364.358678 239.293667 
L 367.433058 239.292235 
L 370.507438 239.293997 
L 373.581818 239.292488 
" style="fill:none;stroke:#9467bd;stroke-linecap:square;stroke-width:1.5;"/>
   </g>
   <g id="line2d_17">
    <path clip-path="url(#pa432a28d8f)" d="M 69.218182 220.66206 
L 72.292562 190.427956 
L 75.366942 167.029943 
L 78.441322 154.278235 
L 81.515702 145.460013 
L 84.590083 139.695621 
L 87.664463 136.17061 
L 90.738843 134.097351 
L 93.813223 132.887333 
L 96.887603 132.200329 
L 99.961983 131.865123 
L 103.036364 131.694493 
L 106.110744 131.605415 
L 109.185124 131.560123 
L 112.259504 131.533761 
L 115.333884 131.521479 
L 118.408264 131.512693 
L 121.482645 131.509762 
L 124.557025 131.506763 
L 127.631405 131.506189 
L 130.705785 131.89691 
L 133.780165 143.655053 
L 136.854545 150.247746 
L 139.928926 152.774974 
L 143.003306 153.849601 
L 146.077686 154.472362 
L 149.152066 154.558519 
L 152.226446 154.335903 
L 155.300826 154.134528 
L 158.375207 154.145042 
L 161.449587 154.535054 
L 164.523967 155.506872 
L 167.598347 157.701439 
L 170.672727 161.67892 
L 173.747107 170.217217 
L 176.821488 187.195212 
L 179.895868 210.395706 
L 182.970248 227.687069 
L 186.044628 235.029581 
L 189.119008 239.278772 
L 192.193388 240.430831 
L 195.267769 240.973589 
L 198.342149 241.328841 
L 201.416529 241.527162 
L 204.490909 241.59648 
L 207.565289 241.633585 
L 210.639669 241.660376 
L 213.71405 241.678479 
L 216.78843 241.688996 
L 219.86281 241.695289 
L 222.93719 241.699438 
L 226.01157 241.701669 
L 229.08595 241.70309 
L 232.160331 241.704072 
L 235.234711 241.70499 
L 238.309091 241.705049 
L 241.383471 241.705965 
L 244.457851 241.705346 
L 247.532231 241.706785 
L 250.606612 241.706091 
L 253.680992 241.706156 
L 256.755372 241.706436 
L 259.829752 241.705821 
L 262.904132 241.706629 
L 265.978512 241.705733 
L 269.052893 241.706661 
L 272.127273 241.705712 
L 275.201653 241.706641 
L 278.276033 241.705836 
L 281.350413 241.70648 
L 284.424793 241.706507 
L 287.499174 241.706659 
L 290.573554 241.706052 
L 293.647934 241.706715 
L 296.722314 241.705758 
L 299.796694 241.706845 
L 302.871074 241.705579 
L 305.945455 241.706937 
L 309.019835 241.705474 
L 312.094215 241.706983 
L 315.168595 241.705534 
L 318.242975 241.706854 
L 321.317355 241.706282 
L 324.391736 241.70681 
L 327.466116 241.705967 
L 330.540496 241.706796 
L 333.614876 241.705705 
L 336.689256 241.706934 
L 339.763636 241.705569 
L 342.838017 241.70701 
L 345.912397 241.705428 
L 348.986777 241.707125 
L 352.061157 241.705408 
L 355.135537 241.707099 
L 358.209917 241.706139 
L 361.284298 241.706955 
L 364.358678 241.705931 
L 367.433058 241.70681 
L 370.507438 241.705728 
L 373.581818 241.706689 
" style="fill:none;stroke:#8c564b;stroke-linecap:square;stroke-width:1.5;"/>
   </g>
   <g id="line2d_18">
    <path clip-path="url(#pa432a28d8f)" d="M 69.218182 220.66206 
L 72.292562 209.124534 
L 75.366942 202.706433 
L 78.441322 180.596207 
L 81.515702 160.920401 
L 84.590083 148.57103 
L 87.664463 141.022089 
L 90.738843 136.734557 
L 93.813223 134.311925 
L 96.887603 132.967896 
L 99.961983 132.230708 
L 103.036364 131.874875 
L 106.110744 131.710273 
L 109.185124 131.614721 
L 112.259504 131.57524 
L 115.333884 131.547644 
L 118.408264 131.538159 
L 121.482645 131.526806 
L 124.557025 131.524166 
L 127.631405 131.519593 
L 130.705785 131.449313 
L 133.780165 139.513414 
L 136.854545 147.821716 
L 139.928926 151.685534 
L 143.003306 153.372595 
L 146.077686 154.231717 
L 149.152066 154.656886 
L 152.226446 154.76338 
L 155.300826 154.999685 
L 158.375207 155.793829 
L 161.449587 157.887043 
L 164.523967 161.881842 
L 167.598347 170.584028 
L 170.672727 188.125934 
L 173.747107 211.482455 
L 176.821488 228.536491 
L 179.895868 236.130547 
L 182.970248 239.932995 
L 186.044628 241.036234 
L 189.119008 241.689575 
L 192.193388 241.865292 
L 195.267769 241.947136 
L 198.342149 241.999334 
L 201.416529 242.029817 
L 204.490909 242.040137 
L 207.565289 242.046118 
L 210.639669 242.049579 
L 213.71405 242.052729 
L 216.78843 242.054143 
L 219.86281 242.055203 
L 222.93719 242.055745 
L 226.01157 242.056098 
L 229.08595 242.056303 
L 232.160331 242.05649 
L 235.234711 242.056491 
L 238.309091 242.056748 
L 241.383471 242.056487 
L 244.457851 242.05689 
L 247.532231 242.056341 
L 250.606612 242.056693 
L 253.680992 242.056745 
L 256.755372 242.056626 
L 259.829752 242.056948 
L 262.904132 242.056551 
L 265.978512 242.056934 
L 269.052893 242.056545 
L 272.127273 242.056989 
L 275.201653 242.056581 
L 278.276033 242.0569 
L 281.350413 242.056648 
L 284.424793 242.056618 
L 287.499174 242.056562 
L 290.573554 242.056861 
L 293.647934 242.056536 
L 296.722314 242.05701 
L 299.796694 242.056455 
L 302.871074 242.057025 
L 305.945455 242.056427 
L 309.019835 242.057086 
L 312.094215 242.056426 
L 315.168595 242.057016 
L 318.242975 242.056489 
L 321.317355 242.056693 
L 324.391736 242.056512 
L 327.466116 242.056906 
L 330.540496 242.056514 
L 333.614876 242.057041 
L 336.689256 242.056422 
L 339.763636 242.057024 
L 342.838017 242.056403 
L 345.912397 242.057126 
L 348.986777 242.056366 
L 352.061157 242.057091 
L 355.135537 242.056386 
L 358.209917 242.056776 
L 361.284298 242.056439 
L 364.358678 242.056917 
L 367.433058 242.056491 
L 370.507438 242.057025 
L 373.581818 242.056526 
" style="fill:none;stroke:#e377c2;stroke-linecap:square;stroke-width:1.5;"/>
   </g>
   <g id="line2d_19">
    <path clip-path="url(#pa432a28d8f)" d="M 69.218182 220.66206 
L 72.292562 227.128511 
L 75.366942 232.044702 
L 78.441322 222.992262 
L 81.515702 201.218572 
L 84.590083 172.034396 
L 87.664463 153.862823 
L 90.738843 143.562112 
L 93.813223 137.924164 
L 96.887603 134.912644 
L 99.961983 133.3177 
L 103.036364 132.47729 
L 106.110744 132.010075 
L 109.185124 131.828777 
L 112.259504 131.71684 
L 115.333884 131.681856 
L 118.408264 131.639943 
L 121.482645 131.637635 
L 124.557025 131.623276 
L 127.631405 131.624602 
L 130.705785 131.620395 
L 133.780165 136.390955 
L 136.854545 145.088289 
L 139.928926 150.225494 
L 143.003306 152.674418 
L 146.077686 154.103425 
L 149.152066 155.183193 
L 152.226446 156.236163 
L 155.300826 158.212703 
L 158.375207 162.055746 
L 161.449587 170.780993 
L 164.523967 188.611865 
L 167.598347 212.018864 
L 170.672727 228.857156 
L 173.747107 236.474432 
L 176.821488 240.065946 
L 179.895868 241.196508 
L 182.970248 241.784744 
L 186.044628 241.952949 
L 189.119008 242.051533 
L 192.193388 242.079498 
L 195.267769 242.091182 
L 198.342149 242.099351 
L 201.416529 242.103548 
L 204.490909 242.105406 
L 207.565289 242.10608 
L 210.639669 242.106798 
L 213.71405 242.107072 
L 216.78843 242.107369 
L 219.86281 242.107465 
L 222.93719 242.1076 
L 226.01157 242.1076 
L 229.08595 242.107633 
L 232.160331 242.107657 
L 235.234711 242.107727 
L 238.309091 242.107658 
L 241.383471 242.107755 
L 244.457851 242.107648 
L 247.532231 242.107789 
L 250.606612 242.107734 
L 253.680992 242.10772 
L 256.755372 242.107784 
L 259.829752 242.107678 
L 262.904132 242.107757 
L 265.978512 242.107641 
L 269.052893 242.107795 
L 272.127273 242.107668 
L 275.201653 242.107768 
L 278.276033 242.107684 
L 281.350413 242.107739 
L 284.424793 242.107732 
L 287.499174 242.107798 
L 290.573554 242.107679 
L 293.647934 242.107827 
L 296.722314 242.107649 
L 299.796694 242.107791 
L 302.871074 242.107621 
L 305.945455 242.107822 
L 309.019835 242.10764 
L 312.094215 242.107791 
L 315.168595 242.107661 
L 318.242975 242.107753 
L 321.317355 242.107708 
L 324.391736 242.107821 
L 327.466116 242.107669 
L 330.540496 242.107842 
L 333.614876 242.107648 
L 336.689256 242.107795 
L 339.763636 242.107614 
L 342.838017 242.10785 
L 345.912397 242.107626 
L 348.986777 242.107828 
L 352.061157 242.107632 
L 355.135537 242.107806 
L 358.209917 242.107684 
L 361.284298 242.107848 
L 364.358678 242.107656 
L 367.433058 242.107847 
L 370.507438 242.107638 
L 373.581818 242.107826 
" style="fill:none;stroke:#7f7f7f;stroke-linecap:square;stroke-width:1.5;"/>
   </g>
   <g id="line2d_20">
    <path clip-path="url(#pa432a28d8f)" d="M 69.218182 220.66206 
L 72.292562 236.678471 
L 75.366942 240.333745 
L 78.441322 238.821515 
L 81.515702 232.257846 
L 84.590083 217.084462 
L 87.664463 188.443249 
L 90.738843 161.580537 
L 93.813223 147.704655 
L 96.887603 140.156399 
L 99.961983 136.363337 
L 103.036364 134.355057 
L 106.110744 133.366855 
L 109.185124 132.741429 
L 112.259504 132.49753 
L 115.333884 132.298934 
L 118.408264 132.232094 
L 121.482645 132.146544 
L 124.557025 132.126652 
L 127.631405 132.094207 
L 130.705785 132.083705 
L 133.780165 134.591398 
L 136.854545 142.483099 
L 139.928926 148.809778 
L 143.003306 152.400235 
L 146.077686 154.929436 
L 149.152066 157.852921 
L 152.226446 161.906862 
L 155.300826 170.537704 
L 158.375207 188.341821 
L 161.449587 212.168114 
L 164.523967 229.017008 
L 167.598347 236.645742 
L 170.672727 240.114962 
L 173.747107 241.244398 
L 176.821488 241.806411 
L 179.895868 241.974253 
L 182.970248 242.066069 
L 186.044628 242.091243 
L 189.119008 242.10673 
L 192.193388 242.110748 
L 195.267769 242.112668 
L 198.342149 242.113751 
L 201.416529 242.114503 
L 204.490909 242.114711 
L 207.565289 242.114914 
L 210.639669 242.11494 
L 213.71405 242.115045 
L 216.78843 242.115052 
L 219.86281 242.115094 
L 222.93719 242.115077 
L 226.01157 242.115117 
L 229.08595 242.115144 
L 232.160331 242.115137 
L 235.234711 242.115111 
L 238.309091 242.115134 
L 241.383471 242.115131 
L 244.457851 242.115151 
L 247.532231 242.115158 
L 250.606612 242.115142 
L 253.680992 242.115136 
L 256.755372 242.115097 
L 259.829752 242.115116 
L 262.904132 242.11513 
L 265.978512 242.115174 
L 269.052893 242.11511 
L 272.127273 242.115132 
L 275.201653 242.115115 
L 278.276033 242.115139 
L 281.350413 242.115131 
L 284.424793 242.115159 
L 287.499174 242.115108 
L 290.573554 242.115146 
L 293.647934 242.115076 
L 296.722314 242.115125 
L 299.796694 242.115122 
L 302.871074 242.115169 
L 305.945455 242.115107 
L 309.019835 242.11514 
L 312.094215 242.115133 
L 315.168595 242.115147 
L 318.242975 242.115166 
L 321.317355 242.115191 
L 324.391736 242.115116 
L 327.466116 242.115158 
L 330.540496 242.115076 
L 333.614876 242.115126 
L 336.689256 242.115131 
L 339.763636 242.115182 
L 342.838017 242.115091 
L 345.912397 242.115141 
L 348.986777 242.115106 
L 352.061157 242.115147 
L 355.135537 242.115125 
L 358.209917 242.11517 
L 361.284298 242.115089 
L 364.358678 242.115152 
L 367.433058 242.115068 
L 370.507438 242.11513 
L 373.581818 242.115074 
" style="fill:none;stroke:#bcbd22;stroke-linecap:square;stroke-width:1.5;"/>
   </g>
   <g id="line2d_21">
    <path clip-path="url(#pa432a28d8f)" d="M 69.218182 220.66206 
L 72.292562 240.417639 
L 75.366942 241.798342 
L 78.441322 241.547358 
L 81.515702 240.451771 
L 84.590083 237.833784 
L 87.664463 227.687562 
L 90.738843 205.675083 
L 93.813223 174.372938 
L 96.887603 155.084127 
L 99.961983 145.496652 
L 103.036364 140.294134 
L 106.110744 137.416388 
L 109.185124 136.202214 
L 112.259504 135.364832 
L 115.333884 135.006285 
L 118.408264 134.675754 
L 121.482645 134.601892 
L 124.557025 134.486728 
L 127.631405 134.469657 
L 130.705785 134.438118 
L 133.780165 135.554607 
L 136.854545 141.909921 
L 139.928926 148.648187 
L 143.003306 153.705759 
L 146.077686 159.846783 
L 149.152066 169.059887 
L 152.226446 186.026372 
L 155.300826 211.247334 
L 158.375207 228.892818 
L 161.449587 236.690322 
L 164.523967 240.139916 
L 167.598347 241.269999 
L 170.672727 241.814668 
L 173.747107 241.982461 
L 176.821488 242.069185 
L 179.895868 242.094939 
L 182.970248 242.108682 
L 186.044628 242.112679 
L 189.119008 242.114866 
L 192.193388 242.115574 
L 195.267769 242.115813 
L 198.342149 242.116009 
L 201.416529 242.116087 
L 204.490909 242.11616 
L 207.565289 242.116146 
L 210.639669 242.116186 
L 213.71405 242.11617 
L 216.78843 242.116183 
L 219.86281 242.116182 
L 222.93719 242.116184 
L 226.01157 242.116188 
L 229.08595 242.116187 
L 232.160331 242.116189 
L 235.234711 242.116196 
L 238.309091 242.116183 
L 241.383471 242.116203 
L 244.457851 242.116182 
L 247.532231 242.116212 
L 250.606612 242.116198 
L 253.680992 242.116186 
L 256.755372 242.116205 
L 259.829752 242.116169 
L 262.904132 242.116211 
L 265.978512 242.116173 
L 269.052893 242.116212 
L 272.127273 242.116174 
L 275.201653 242.116205 
L 278.276033 242.116182 
L 281.350413 242.116199 
L 284.424793 242.116196 
L 287.499174 242.116209 
L 290.573554 242.116176 
L 293.647934 242.116214 
L 296.722314 242.116163 
L 299.796694 242.11622 
L 302.871074 242.116166 
L 305.945455 242.116222 
L 309.019835 242.116168 
L 312.094215 242.116217 
L 315.168595 242.116177 
L 318.242975 242.116211 
L 321.317355 242.116195 
L 324.391736 242.116215 
L 327.466116 242.116176 
L 330.540496 242.116217 
L 333.614876 242.116163 
L 336.689256 242.116222 
L 339.763636 242.116167 
L 342.838017 242.116224 
L 345.912397 242.116165 
L 348.986777 242.11622 
L 352.061157 242.11617 
L 355.135537 242.116215 
L 358.209917 242.116186 
L 361.284298 242.116217 
L 364.358678 242.116173 
L 367.433058 242.116217 
L 370.507438 242.116163 
L 373.581818 242.116214 
" style="fill:none;stroke:#17becf;stroke-linecap:square;stroke-width:1.5;"/>
   </g>
   <g id="line2d_22">
    <path clip-path="url(#pa432a28d8f)" d="M 69.218182 220.66206 
L 72.292562 241.508681 
L 75.366942 242.059172 
L 78.441322 242.019776 
L 81.515702 241.838481 
L 84.590083 241.400035 
L 87.664463 239.698903 
L 90.738843 234.289675 
L 93.813223 220.81946 
L 96.887603 197.240476 
L 99.961983 173.268489 
L 103.036364 159.578398 
L 106.110744 152.674386 
L 109.185124 148.961408 
L 112.259504 146.890023 
L 115.333884 145.4205 
L 118.408264 144.730595 
L 121.482645 144.184976 
L 124.557025 143.959246 
L 127.631405 143.731509 
L 130.705785 143.629604 
L 133.780165 144.113536 
L 136.854545 148.495889 
L 139.928926 155.434408 
L 143.003306 164.11184 
L 146.077686 182.316548 
L 149.152066 208.915645 
L 152.226446 228.048425 
L 155.300826 236.377383 
L 158.375207 240.124559 
L 161.449587 241.273648 
L 164.523967 241.818845 
L 167.598347 241.98616 
L 170.672727 242.070477 
L 173.747107 242.095711 
L 176.821488 242.10925 
L 179.895868 242.113006 
L 182.970248 242.115212 
L 186.044628 242.115783 
L 189.119008 242.116159 
L 192.193388 242.116248 
L 195.267769 242.116289 
L 198.342149 242.116314 
L 201.416529 242.116329 
L 204.490909 242.116299 
L 207.565289 242.116324 
L 210.639669 242.116311 
L 213.71405 242.116326 
L 216.78843 242.116323 
L 219.86281 242.116327 
L 222.93719 242.116326 
L 226.01157 242.116324 
L 229.08595 242.116327 
L 232.160331 242.116326 
L 235.234711 242.116324 
L 238.309091 242.116329 
L 241.383471 242.116322 
L 244.457851 242.116331 
L 247.532231 242.11632 
L 250.606612 242.116325 
L 253.680992 242.11633 
L 256.755372 242.116318 
L 259.829752 242.116335 
L 262.904132 242.116314 
L 265.978512 242.116335 
L 269.052893 242.116316 
L 272.127273 242.116334 
L 275.201653 242.116319 
L 278.276033 242.116331 
L 281.350413 242.116322 
L 284.424793 242.116328 
L 287.499174 242.116318 
L 290.573554 242.116334 
L 293.647934 242.116312 
L 296.722314 242.116338 
L 299.796694 242.11631 
L 302.871074 242.116338 
L 305.945455 242.116311 
L 309.019835 242.116337 
L 312.094215 242.116314 
L 315.168595 242.116335 
L 318.242975 242.116318 
L 321.317355 242.116331 
L 324.391736 242.116316 
L 327.466116 242.116336 
L 330.540496 242.116312 
L 333.614876 242.116338 
L 336.689256 242.116309 
L 339.763636 242.116338 
L 342.838017 242.116311 
L 345.912397 242.116338 
L 348.986777 242.116312 
L 352.061157 242.116336 
L 355.135537 242.116315 
L 358.209917 242.116333 
L 361.284298 242.116313 
L 364.358678 242.116336 
L 367.433058 242.116311 
L 370.507438 242.116338 
L 373.581818 242.116311 
" style="fill:none;stroke:#1f77b4;stroke-linecap:square;stroke-width:1.5;"/>
   </g>
   <g id="line2d_23">
    <path clip-path="url(#pa432a28d8f)" d="M 69.218182 220.66206 
L 72.292562 241.867574 
L 75.366942 242.106206 
L 78.441322 242.101115 
L 81.515702 242.074913 
L 84.590083 242.007491 
L 87.664463 241.746906 
L 90.738843 240.969741 
L 93.813223 238.864467 
L 96.887603 232.821127 
L 99.961983 224.012491 
L 103.036364 212.847053 
L 106.110744 202.860999 
L 109.185124 195.290678 
L 112.259504 190.110626 
L 115.333884 186.744262 
L 118.408264 184.49365 
L 121.482645 183.073339 
L 124.557025 182.147893 
L 127.631405 181.589124 
L 130.705785 181.227761 
L 133.780165 181.10365 
L 136.854545 183.478665 
L 139.928926 190.261355 
L 143.003306 205.495968 
L 146.077686 226.926564 
L 149.152066 235.683615 
L 152.226446 239.992217 
L 155.300826 241.22865 
L 158.375207 241.81906 
L 161.449587 241.987618 
L 164.523967 242.071908 
L 167.598347 242.096481 
L 170.672727 242.109529 
L 173.747107 242.113254 
L 176.821488 242.115295 
L 179.895868 242.115876 
L 182.970248 242.116194 
L 186.044628 242.116286 
L 189.119008 242.116336 
L 192.193388 242.116352 
L 195.267769 242.116358 
L 198.342149 242.116362 
L 201.416529 242.116363 
L 204.490909 242.116361 
L 207.565289 242.116362 
L 210.639669 242.116363 
L 213.71405 242.116363 
L 216.78843 242.116363 
L 219.86281 242.116363 
L 222.93719 242.116363 
L 226.01157 242.116363 
L 229.08595 242.116363 
L 232.160331 242.116363 
L 235.234711 242.116363 
L 238.309091 242.116363 
L 241.383471 242.116363 
L 244.457851 242.116363 
L 247.532231 242.116363 
L 250.606612 242.116363 
L 253.680992 242.116363 
L 256.755372 242.116363 
L 259.829752 242.116363 
L 262.904132 242.116364 
L 265.978512 242.116363 
L 269.052893 242.116364 
L 272.127273 242.116363 
L 275.201653 242.116364 
L 278.276033 242.116363 
L 281.350413 242.116364 
L 284.424793 242.116363 
L 287.499174 242.116363 
L 290.573554 242.116363 
L 293.647934 242.116363 
L 296.722314 242.116363 
L 299.796694 242.116364 
L 302.871074 242.116363 
L 305.945455 242.116364 
L 309.019835 242.116363 
L 312.094215 242.116364 
L 315.168595 242.116363 
L 318.242975 242.116364 
L 321.317355 242.116363 
L 324.391736 242.116364 
L 327.466116 242.116363 
L 330.540496 242.116364 
L 333.614876 242.116363 
L 336.689256 242.116364 
L 339.763636 242.116363 
L 342.838017 242.116364 
L 345.912397 242.116363 
L 348.986777 242.116364 
L 352.061157 242.116363 
L 355.135537 242.116364 
L 358.209917 242.116363 
L 361.284298 242.116364 
L 364.358678 242.116363 
L 367.433058 242.116363 
L 370.507438 242.116363 
L 373.581818 242.116363 
" style="fill:none;stroke:#ff7f0e;stroke-linecap:square;stroke-width:1.5;"/>
   </g>
   <g id="patch_3">
    <path d="M 54 252 
L 54 34.56 
" style="fill:none;stroke:#000000;stroke-linecap:square;stroke-linejoin:miter;stroke-width:0.8;"/>
   </g>
   <g id="patch_4">
    <path d="M 388.8 252 
L 388.8 34.56 
" style="fill:none;stroke:#000000;stroke-linecap:square;stroke-linejoin:miter;stroke-width:0.8;"/>
   </g>
   <g id="patch_5">
    <path d="M 54 252 
L 388.8 252 
" style="fill:none;stroke:#000000;stroke-linecap:square;stroke-linejoin:miter;stroke-width:0.8;"/>
   </g>
   <g id="patch_6">
    <path d="M 54 34.56 
L 388.8 34.56 
" style="fill:none;stroke:#000000;stroke-linecap:square;stroke-linejoin:miter;stroke-width:0.8;"/>
   </g>
   <g id="text_14">
    <!-- Initial steady state calculation -->
    <defs>
     <path d="M 9.8125 72.90625 
L 19.671875 72.90625 
L 19.671875 0 
L 9.8125 0 
z
" id="DejaVuSans-73"/>
     <path d="M 34.28125 27.484375 
Q 23.390625 27.484375 19.1875 25 
Q 14.984375 22.515625 14.984375 16.5 
Q 14.984375 11.71875 18.140625 8.90625 
Q 21.296875 6.109375 26.703125 6.109375 
Q 34.1875 6.109375 38.703125 11.40625 
Q 43.21875 16.703125 43.21875 25.484375 
L 43.21875 27.484375 
z
M 52.203125 31.203125 
L 52.203125 0 
L 43.21875 0 
L 43.21875 8.296875 
Q 40.140625 3.328125 35.546875 0.953125 
Q 30.953125 -1.421875 24.3125 -1.421875 
Q 15.921875 -1.421875 10.953125 3.296875 
Q 6 8.015625 6 15.921875 
Q 6 25.140625 12.171875 29.828125 
Q 18.359375 34.515625 30.609375 34.515625 
L 43.21875 34.515625 
L 43.21875 35.40625 
Q 43.21875 41.609375 39.140625 45 
Q 35.0625 48.390625 27.6875 48.390625 
Q 23 48.390625 18.546875 47.265625 
Q 14.109375 46.140625 10.015625 43.890625 
L 10.015625 52.203125 
Q 14.9375 54.109375 19.578125 55.046875 
Q 24.21875 56 28.609375 56 
Q 40.484375 56 46.34375 49.84375 
Q 52.203125 43.703125 52.203125 31.203125 
z
" id="DejaVuSans-97"/>
     <path d="M 9.421875 75.984375 
L 18.40625 75.984375 
L 18.40625 0 
L 9.421875 0 
z
" id="DejaVuSans-108"/>
     <path d="M 45.40625 46.390625 
L 45.40625 75.984375 
L 54.390625 75.984375 
L 54.390625 0 
L 45.40625 0 
L 45.40625 8.203125 
Q 42.578125 3.328125 38.25 0.953125 
Q 33.9375 -1.421875 27.875 -1.421875 
Q 17.96875 -1.421875 11.734375 6.484375 
Q 5.515625 14.40625 5.515625 27.296875 
Q 5.515625 40.1875 11.734375 48.09375 
Q 17.96875 56 27.875 56 
Q 33.9375 56 38.25 53.625 
Q 42.578125 51.265625 45.40625 46.390625 
z
M 14.796875 27.296875 
Q 14.796875 17.390625 18.875 11.75 
Q 22.953125 6.109375 30.078125 6.109375 
Q 37.203125 6.109375 41.296875 11.75 
Q 45.40625 17.390625 45.40625 27.296875 
Q 45.40625 37.203125 41.296875 42.84375 
Q 37.203125 48.484375 30.078125 48.484375 
Q 22.953125 48.484375 18.875 42.84375 
Q 14.796875 37.203125 14.796875 27.296875 
z
" id="DejaVuSans-100"/>
     <path d="M 32.171875 -5.078125 
Q 28.375 -14.84375 24.75 -17.8125 
Q 21.140625 -20.796875 15.09375 -20.796875 
L 7.90625 -20.796875 
L 7.90625 -13.28125 
L 13.1875 -13.28125 
Q 16.890625 -13.28125 18.9375 -11.515625 
Q 21 -9.765625 23.484375 -3.21875 
L 25.09375 0.875 
L 2.984375 54.6875 
L 12.5 54.6875 
L 29.59375 11.921875 
L 46.6875 54.6875 
L 56.203125 54.6875 
z
" id="DejaVuSans-121"/>
     <path d="M 48.78125 52.59375 
L 48.78125 44.1875 
Q 44.96875 46.296875 41.140625 47.34375 
Q 37.3125 48.390625 33.40625 48.390625 
Q 24.65625 48.390625 19.8125 42.84375 
Q 14.984375 37.3125 14.984375 27.296875 
Q 14.984375 17.28125 19.8125 11.734375 
Q 24.65625 6.203125 33.40625 6.203125 
Q 37.3125 6.203125 41.140625 7.25 
Q 44.96875 8.296875 48.78125 10.40625 
L 48.78125 2.09375 
Q 45.015625 0.34375 40.984375 -0.53125 
Q 36.96875 -1.421875 32.421875 -1.421875 
Q 20.0625 -1.421875 12.78125 6.34375 
Q 5.515625 14.109375 5.515625 27.296875 
Q 5.515625 40.671875 12.859375 48.328125 
Q 20.21875 56 33.015625 56 
Q 37.15625 56 41.109375 55.140625 
Q 45.0625 54.296875 48.78125 52.59375 
z
" id="DejaVuSans-99"/>
     <path d="M 8.5 21.578125 
L 8.5 54.6875 
L 17.484375 54.6875 
L 17.484375 21.921875 
Q 17.484375 14.15625 20.5 10.265625 
Q 23.53125 6.390625 29.59375 6.390625 
Q 36.859375 6.390625 41.078125 11.03125 
Q 45.3125 15.671875 45.3125 23.6875 
L 45.3125 54.6875 
L 54.296875 54.6875 
L 54.296875 0 
L 45.3125 0 
L 45.3125 8.40625 
Q 42.046875 3.421875 37.71875 1 
Q 33.40625 -1.421875 27.6875 -1.421875 
Q 18.265625 -1.421875 13.375 4.4375 
Q 8.5 10.296875 8.5 21.578125 
z
M 31.109375 56 
z
" id="DejaVuSans-117"/>
    </defs>
    <g transform="translate(131.090625 28.56)scale(0.12 -0.12)">
     <use xlink:href="#DejaVuSans-73"/>
     <use x="29.492188" xlink:href="#DejaVuSans-110"/>
     <use x="92.871094" xlink:href="#DejaVuSans-105"/>
     <use x="120.654297" xlink:href="#DejaVuSans-116"/>
     <use x="159.863281" xlink:href="#DejaVuSans-105"/>
     <use x="187.646484" xlink:href="#DejaVuSans-97"/>
     <use x="248.925781" xlink:href="#DejaVuSans-108"/>
     <use x="276.708984" xlink:href="#DejaVuSans-32"/>
     <use x="308.496094" xlink:href="#DejaVuSans-115"/>
     <use x="360.595703" xlink:href="#DejaVuSans-116"/>
     <use x="399.804688" xlink:href="#DejaVuSans-101"/>
     <use x="461.328125" xlink:href="#DejaVuSans-97"/>
     <use x="522.607422" xlink:href="#DejaVuSans-100"/>
     <use x="586.083984" xlink:href="#DejaVuSans-121"/>
     <use x="645.263672" xlink:href="#DejaVuSans-32"/>
     <use x="677.050781" xlink:href="#DejaVuSans-115"/>
     <use x="729.150391" xlink:href="#DejaVuSans-116"/>
     <use x="768.359375" xlink:href="#DejaVuSans-97"/>
     <use x="829.638672" xlink:href="#DejaVuSans-116"/>
     <use x="868.847656" xlink:href="#DejaVuSans-101"/>
     <use x="930.371094" xlink:href="#DejaVuSans-32"/>
     <use x="962.158203" xlink:href="#DejaVuSans-99"/>
     <use x="1017.138672" xlink:href="#DejaVuSans-97"/>
     <use x="1078.417969" xlink:href="#DejaVuSans-108"/>
     <use x="1106.201172" xlink:href="#DejaVuSans-99"/>
     <use x="1161.181641" xlink:href="#DejaVuSans-117"/>
     <use x="1224.560547" xlink:href="#DejaVuSans-108"/>
     <use x="1252.34375" xlink:href="#DejaVuSans-97"/>
     <use x="1313.623047" xlink:href="#DejaVuSans-116"/>
     <use x="1352.832031" xlink:href="#DejaVuSans-105"/>
     <use x="1380.615234" xlink:href="#DejaVuSans-111"/>
     <use x="1441.796875" xlink:href="#DejaVuSans-110"/>
    </g>
   </g>
   <g id="legend_1">
    <g id="patch_7">
     <path d="M 331.15625 218.6975 
L 381.8 218.6975 
Q 383.8 218.6975 383.8 216.6975 
L 383.8 41.56 
Q 383.8 39.56 381.8 39.56 
L 331.15625 39.56 
Q 329.15625 39.56 329.15625 41.56 
L 329.15625 216.6975 
Q 329.15625 218.6975 331.15625 218.6975 
z
" style="fill:#ffffff;opacity:0.8;stroke:#cccccc;stroke-linejoin:miter;"/>
    </g>
    <g id="line2d_24">
     <path d="M 333.15625 47.658437 
L 353.15625 47.658437 
" style="fill:none;stroke:#1f77b4;stroke-linecap:square;stroke-width:1.5;"/>
    </g>
    <g id="line2d_25"/>
    <g id="text_15">
     <!-- x0 -->
     <defs>
      <path d="M 54.890625 54.6875 
L 35.109375 28.078125 
L 55.90625 0 
L 45.3125 0 
L 29.390625 21.484375 
L 13.484375 0 
L 2.875 0 
L 24.125 28.609375 
L 4.6875 54.6875 
L 15.28125 54.6875 
L 29.78125 35.203125 
L 44.28125 54.6875 
z
" id="DejaVuSans-120"/>
     </defs>
     <g transform="translate(361.15625 51.158437)scale(0.1 -0.1)">
      <use xlink:href="#DejaVuSans-120"/>
      <use x="59.179688" xlink:href="#DejaVuSans-48"/>
     </g>
    </g>
    <g id="line2d_26">
     <path d="M 333.15625 62.336563 
L 353.15625 62.336563 
" style="fill:none;stroke:#ff7f0e;stroke-linecap:square;stroke-width:1.5;"/>
    </g>
    <g id="line2d_27"/>
    <g id="text_16">
     <!-- x1 -->
     <g transform="translate(361.15625 65.836563)scale(0.1 -0.1)">
      <use xlink:href="#DejaVuSans-120"/>
      <use x="59.179688" xlink:href="#DejaVuSans-49"/>
     </g>
    </g>
    <g id="line2d_28">
     <path d="M 333.15625 77.014688 
L 353.15625 77.014688 
" style="fill:none;stroke:#2ca02c;stroke-linecap:square;stroke-width:1.5;"/>
    </g>
    <g id="line2d_29"/>
    <g id="text_17">
     <!-- x2 -->
     <g transform="translate(361.15625 80.514688)scale(0.1 -0.1)">
      <use xlink:href="#DejaVuSans-120"/>
      <use x="59.179688" xlink:href="#DejaVuSans-50"/>
     </g>
    </g>
    <g id="line2d_30">
     <path d="M 333.15625 91.692813 
L 353.15625 91.692813 
" style="fill:none;stroke:#d62728;stroke-linecap:square;stroke-width:1.5;"/>
    </g>
    <g id="line2d_31"/>
    <g id="text_18">
     <!-- x3 -->
     <g transform="translate(361.15625 95.192813)scale(0.1 -0.1)">
      <use xlink:href="#DejaVuSans-120"/>
      <use x="59.179688" xlink:href="#DejaVuSans-51"/>
     </g>
    </g>
    <g id="line2d_32">
     <path d="M 333.15625 106.370938 
L 353.15625 106.370938 
" style="fill:none;stroke:#9467bd;stroke-linecap:square;stroke-width:1.5;"/>
    </g>
    <g id="line2d_33"/>
    <g id="text_19">
     <!-- x4 -->
     <g transform="translate(361.15625 109.870938)scale(0.1 -0.1)">
      <use xlink:href="#DejaVuSans-120"/>
      <use x="59.179688" xlink:href="#DejaVuSans-52"/>
     </g>
    </g>
    <g id="line2d_34">
     <path d="M 333.15625 121.049062 
L 353.15625 121.049062 
" style="fill:none;stroke:#8c564b;stroke-linecap:square;stroke-width:1.5;"/>
    </g>
    <g id="line2d_35"/>
    <g id="text_20">
     <!-- x5 -->
     <g transform="translate(361.15625 124.549062)scale(0.1 -0.1)">
      <use xlink:href="#DejaVuSans-120"/>
      <use x="59.179688" xlink:href="#DejaVuSans-53"/>
     </g>
    </g>
    <g id="line2d_36">
     <path d="M 333.15625 135.727188 
L 353.15625 135.727188 
" style="fill:none;stroke:#e377c2;stroke-linecap:square;stroke-width:1.5;"/>
    </g>
    <g id="line2d_37"/>
    <g id="text_21">
     <!-- x6 -->
     <g transform="translate(361.15625 139.227188)scale(0.1 -0.1)">
      <use xlink:href="#DejaVuSans-120"/>
      <use x="59.179688" xlink:href="#DejaVuSans-54"/>
     </g>
    </g>
    <g id="line2d_38">
     <path d="M 333.15625 150.405312 
L 353.15625 150.405312 
" style="fill:none;stroke:#7f7f7f;stroke-linecap:square;stroke-width:1.5;"/>
    </g>
    <g id="line2d_39"/>
    <g id="text_22">
     <!-- x7 -->
     <defs>
      <path d="M 8.203125 72.90625 
L 55.078125 72.90625 
L 55.078125 68.703125 
L 28.609375 0 
L 18.3125 0 
L 43.21875 64.59375 
L 8.203125 64.59375 
z
" id="DejaVuSans-55"/>
     </defs>
     <g transform="translate(361.15625 153.905312)scale(0.1 -0.1)">
      <use xlink:href="#DejaVuSans-120"/>
      <use x="59.179688" xlink:href="#DejaVuSans-55"/>
     </g>
    </g>
    <g id="line2d_40">
     <path d="M 333.15625 165.083438 
L 353.15625 165.083438 
" style="fill:none;stroke:#bcbd22;stroke-linecap:square;stroke-width:1.5;"/>
    </g>
    <g id="line2d_41"/>
    <g id="text_23">
     <!-- x8 -->
     <g transform="translate(361.15625 168.583438)scale(0.1 -0.1)">
      <use xlink:href="#DejaVuSans-120"/>
      <use x="59.179688" xlink:href="#DejaVuSans-56"/>
     </g>
    </g>
    <g id="line2d_42">
     <path d="M 333.15625 179.761562 
L 353.15625 179.761562 
" style="fill:none;stroke:#17becf;stroke-linecap:square;stroke-width:1.5;"/>
    </g>
    <g id="line2d_43"/>
    <g id="text_24">
     <!-- x9 -->
     <defs>
      <path d="M 10.984375 1.515625 
L 10.984375 10.5 
Q 14.703125 8.734375 18.5 7.8125 
Q 22.3125 6.890625 25.984375 6.890625 
Q 35.75 6.890625 40.890625 13.453125 
Q 46.046875 20.015625 46.78125 33.40625 
Q 43.953125 29.203125 39.59375 26.953125 
Q 35.25 24.703125 29.984375 24.703125 
Q 19.046875 24.703125 12.671875 31.3125 
Q 6.296875 37.9375 6.296875 49.421875 
Q 6.296875 60.640625 12.9375 67.421875 
Q 19.578125 74.21875 30.609375 74.21875 
Q 43.265625 74.21875 49.921875 64.515625 
Q 56.59375 54.828125 56.59375 36.375 
Q 56.59375 19.140625 48.40625 8.859375 
Q 40.234375 -1.421875 26.421875 -1.421875 
Q 22.703125 -1.421875 18.890625 -0.6875 
Q 15.09375 0.046875 10.984375 1.515625 
z
M 30.609375 32.421875 
Q 37.25 32.421875 41.125 36.953125 
Q 45.015625 41.5 45.015625 49.421875 
Q 45.015625 57.28125 41.125 61.84375 
Q 37.25 66.40625 30.609375 66.40625 
Q 23.96875 66.40625 20.09375 61.84375 
Q 16.21875 57.28125 16.21875 49.421875 
Q 16.21875 41.5 20.09375 36.953125 
Q 23.96875 32.421875 30.609375 32.421875 
z
" id="DejaVuSans-57"/>
     </defs>
     <g transform="translate(361.15625 183.261562)scale(0.1 -0.1)">
      <use xlink:href="#DejaVuSans-120"/>
      <use x="59.179688" xlink:href="#DejaVuSans-57"/>
     </g>
    </g>
    <g id="line2d_44">
     <path d="M 333.15625 194.439687 
L 353.15625 194.439687 
" style="fill:none;stroke:#1f77b4;stroke-linecap:square;stroke-width:1.5;"/>
    </g>
    <g id="line2d_45"/>
    <g id="text_25">
     <!-- x10 -->
     <g transform="translate(361.15625 197.939687)scale(0.1 -0.1)">
      <use xlink:href="#DejaVuSans-120"/>
      <use x="59.179688" xlink:href="#DejaVuSans-49"/>
      <use x="122.802734" xlink:href="#DejaVuSans-48"/>
     </g>
    </g>
    <g id="line2d_46">
     <path d="M 333.15625 209.117812 
L 353.15625 209.117812 
" style="fill:none;stroke:#ff7f0e;stroke-linecap:square;stroke-width:1.5;"/>
    </g>
    <g id="line2d_47"/>
    <g id="text_26">
     <!-- x11 -->
     <g transform="translate(361.15625 212.617812)scale(0.1 -0.1)">
      <use xlink:href="#DejaVuSans-120"/>
      <use x="59.179688" xlink:href="#DejaVuSans-49"/>
      <use x="122.802734" xlink:href="#DejaVuSans-49"/>
     </g>
    </g>
   </g>
  </g>
 </g>
 <defs>
  <clipPath id="pa432a28d8f">
   <rect height="217.44" width="334.8" x="54" y="34.56"/>
  </clipPath>
 </defs>
</svg>
