<?xml version="1.0" encoding="utf-8" standalone="no"?>
<!DOCTYPE svg PUBLIC "-//W3C//DTD SVG 1.1//EN"
  "http://www.w3.org/Graphics/SVG/1.1/DTD/svg11.dtd">
<!-- Created with matplotlib (https://matplotlib.org/) -->
<svg height="288pt" version="1.1" viewBox="0 0 432 288" width="432pt" xmlns="http://www.w3.org/2000/svg" xmlns:xlink="http://www.w3.org/1999/xlink">
 <defs>
  <style type="text/css">
*{stroke-linecap:butt;stroke-linejoin:round;}
  </style>
 </defs>
 <g id="figure_1">
  <g id="patch_1">
   <path d="M 0 288 
L 432 288 
L 432 0 
L 0 0 
z
" style="fill:#ffffff;"/>
  </g>
  <g id="axes_1">
   <g id="patch_2">
    <path d="M 54 252 
L 388.8 252 
L 388.8 34.56 
L 54 34.56 
z
" style="fill:#ffffff;"/>
   </g>
   <g id="matplotlib.axis_1">
    <g id="xtick_1">
     <g id="line2d_1">
      <defs>
       <path d="M 0 0 
L 0 3.5 
" id="m41f11f0f77" style="stroke:#000000;stroke-width:0.8;"/>
      </defs>
      <g>
       <use style="stroke:#000000;stroke-width:0.8;" x="69.218182" xlink:href="#m41f11f0f77" y="252"/>
      </g>
     </g>
     <g id="text_1">
      <!-- 0 -->
      <defs>
       <path d="M 31.78125 66.40625 
Q 24.171875 66.40625 20.328125 58.90625 
Q 16.5 51.421875 16.5 36.375 
Q 16.5 21.390625 20.328125 13.890625 
Q 24.171875 6.390625 31.78125 6.390625 
Q 39.453125 6.390625 43.28125 13.890625 
Q 47.125 21.390625 47.125 36.375 
Q 47.125 51.421875 43.28125 58.90625 
Q 39.453125 66.40625 31.78125 66.40625 
z
M 31.78125 74.21875 
Q 44.046875 74.21875 50.515625 64.515625 
Q 56.984375 54.828125 56.984375 36.375 
Q 56.984375 17.96875 50.515625 8.265625 
Q 44.046875 -1.421875 31.78125 -1.421875 
Q 19.53125 -1.421875 13.0625 8.265625 
Q 6.59375 17.96875 6.59375 36.375 
Q 6.59375 54.828125 13.0625 64.515625 
Q 19.53125 74.21875 31.78125 74.21875 
z
" id="DejaVuSans-48"/>
      </defs>
      <g transform="translate(66.036932 266.598437)scale(0.1 -0.1)">
       <use xlink:href="#DejaVuSans-48"/>
      </g>
     </g>
    </g>
    <g id="xtick_2">
     <g id="line2d_2">
      <g>
       <use style="stroke:#000000;stroke-width:0.8;" x="109.8" xlink:href="#m41f11f0f77" y="252"/>
      </g>
     </g>
     <g id="text_2">
      <!-- 2 -->
      <defs>
       <path d="M 19.1875 8.296875 
L 53.609375 8.296875 
L 53.609375 0 
L 7.328125 0 
L 7.328125 8.296875 
Q 12.9375 14.109375 22.625 23.890625 
Q 32.328125 33.6875 34.8125 36.53125 
Q 39.546875 41.84375 41.421875 45.53125 
Q 43.3125 49.21875 43.3125 52.78125 
Q 43.3125 58.59375 39.234375 62.25 
Q 35.15625 65.921875 28.609375 65.921875 
Q 23.96875 65.921875 18.8125 64.3125 
Q 13.671875 62.703125 7.8125 59.421875 
L 7.8125 69.390625 
Q 13.765625 71.78125 18.9375 73 
Q 24.125 74.21875 28.421875 74.21875 
Q 39.75 74.21875 46.484375 68.546875 
Q 53.21875 62.890625 53.21875 53.421875 
Q 53.21875 48.921875 51.53125 44.890625 
Q 49.859375 40.875 45.40625 35.40625 
Q 44.1875 33.984375 37.640625 27.21875 
Q 31.109375 20.453125 19.1875 8.296875 
z
" id="DejaVuSans-50"/>
      </defs>
      <g transform="translate(106.61875 266.598437)scale(0.1 -0.1)">
       <use xlink:href="#DejaVuSans-50"/>
      </g>
     </g>
    </g>
    <g id="xtick_3">
     <g id="line2d_3">
      <g>
       <use style="stroke:#000000;stroke-width:0.8;" x="150.381818" xlink:href="#m41f11f0f77" y="252"/>
      </g>
     </g>
     <g id="text_3">
      <!-- 4 -->
      <defs>
       <path d="M 37.796875 64.3125 
L 12.890625 25.390625 
L 37.796875 25.390625 
z
M 35.203125 72.90625 
L 47.609375 72.90625 
L 47.609375 25.390625 
L 58.015625 25.390625 
L 58.015625 17.1875 
L 47.609375 17.1875 
L 47.609375 0 
L 37.796875 0 
L 37.796875 17.1875 
L 4.890625 17.1875 
L 4.890625 26.703125 
z
" id="DejaVuSans-52"/>
      </defs>
      <g transform="translate(147.200568 266.598437)scale(0.1 -0.1)">
       <use xlink:href="#DejaVuSans-52"/>
      </g>
     </g>
    </g>
    <g id="xtick_4">
     <g id="line2d_4">
      <g>
       <use style="stroke:#000000;stroke-width:0.8;" x="190.963636" xlink:href="#m41f11f0f77" y="252"/>
      </g>
     </g>
     <g id="text_4">
      <!-- 6 -->
      <defs>
       <path d="M 33.015625 40.375 
Q 26.375 40.375 22.484375 35.828125 
Q 18.609375 31.296875 18.609375 23.390625 
Q 18.609375 15.53125 22.484375 10.953125 
Q 26.375 6.390625 33.015625 6.390625 
Q 39.65625 6.390625 43.53125 10.953125 
Q 47.40625 15.53125 47.40625 23.390625 
Q 47.40625 31.296875 43.53125 35.828125 
Q 39.65625 40.375 33.015625 40.375 
z
M 52.59375 71.296875 
L 52.59375 62.3125 
Q 48.875 64.0625 45.09375 64.984375 
Q 41.3125 65.921875 37.59375 65.921875 
Q 27.828125 65.921875 22.671875 59.328125 
Q 17.53125 52.734375 16.796875 39.40625 
Q 19.671875 43.65625 24.015625 45.921875 
Q 28.375 48.1875 33.59375 48.1875 
Q 44.578125 48.1875 50.953125 41.515625 
Q 57.328125 34.859375 57.328125 23.390625 
Q 57.328125 12.15625 50.6875 5.359375 
Q 44.046875 -1.421875 33.015625 -1.421875 
Q 20.359375 -1.421875 13.671875 8.265625 
Q 6.984375 17.96875 6.984375 36.375 
Q 6.984375 53.65625 15.1875 63.9375 
Q 23.390625 74.21875 37.203125 74.21875 
Q 40.921875 74.21875 44.703125 73.484375 
Q 48.484375 72.75 52.59375 71.296875 
z
" id="DejaVuSans-54"/>
      </defs>
      <g transform="translate(187.782386 266.598437)scale(0.1 -0.1)">
       <use xlink:href="#DejaVuSans-54"/>
      </g>
     </g>
    </g>
    <g id="xtick_5">
     <g id="line2d_5">
      <g>
       <use style="stroke:#000000;stroke-width:0.8;" x="231.545455" xlink:href="#m41f11f0f77" y="252"/>
      </g>
     </g>
     <g id="text_5">
      <!-- 8 -->
      <defs>
       <path d="M 31.78125 34.625 
Q 24.75 34.625 20.71875 30.859375 
Q 16.703125 27.09375 16.703125 20.515625 
Q 16.703125 13.921875 20.71875 10.15625 
Q 24.75 6.390625 31.78125 6.390625 
Q 38.8125 6.390625 42.859375 10.171875 
Q 46.921875 13.96875 46.921875 20.515625 
Q 46.921875 27.09375 42.890625 30.859375 
Q 38.875 34.625 31.78125 34.625 
z
M 21.921875 38.8125 
Q 15.578125 40.375 12.03125 44.71875 
Q 8.5 49.078125 8.5 55.328125 
Q 8.5 64.0625 14.71875 69.140625 
Q 20.953125 74.21875 31.78125 74.21875 
Q 42.671875 74.21875 48.875 69.140625 
Q 55.078125 64.0625 55.078125 55.328125 
Q 55.078125 49.078125 51.53125 44.71875 
Q 48 40.375 41.703125 38.8125 
Q 48.828125 37.15625 52.796875 32.3125 
Q 56.78125 27.484375 56.78125 20.515625 
Q 56.78125 9.90625 50.3125 4.234375 
Q 43.84375 -1.421875 31.78125 -1.421875 
Q 19.734375 -1.421875 13.25 4.234375 
Q 6.78125 9.90625 6.78125 20.515625 
Q 6.78125 27.484375 10.78125 32.3125 
Q 14.796875 37.15625 21.921875 38.8125 
z
M 18.3125 54.390625 
Q 18.3125 48.734375 21.84375 45.5625 
Q 25.390625 42.390625 31.78125 42.390625 
Q 38.140625 42.390625 41.71875 45.5625 
Q 45.3125 48.734375 45.3125 54.390625 
Q 45.3125 60.0625 41.71875 63.234375 
Q 38.140625 66.40625 31.78125 66.40625 
Q 25.390625 66.40625 21.84375 63.234375 
Q 18.3125 60.0625 18.3125 54.390625 
z
" id="DejaVuSans-56"/>
      </defs>
      <g transform="translate(228.364205 266.598437)scale(0.1 -0.1)">
       <use xlink:href="#DejaVuSans-56"/>
      </g>
     </g>
    </g>
    <g id="xtick_6">
     <g id="line2d_6">
      <g>
       <use style="stroke:#000000;stroke-width:0.8;" x="272.127273" xlink:href="#m41f11f0f77" y="252"/>
      </g>
     </g>
     <g id="text_6">
      <!-- 10 -->
      <defs>
       <path d="M 12.40625 8.296875 
L 28.515625 8.296875 
L 28.515625 63.921875 
L 10.984375 60.40625 
L 10.984375 69.390625 
L 28.421875 72.90625 
L 38.28125 72.90625 
L 38.28125 8.296875 
L 54.390625 8.296875 
L 54.390625 0 
L 12.40625 0 
z
" id="DejaVuSans-49"/>
      </defs>
      <g transform="translate(265.764773 266.598437)scale(0.1 -0.1)">
       <use xlink:href="#DejaVuSans-49"/>
       <use x="63.623047" xlink:href="#DejaVuSans-48"/>
      </g>
     </g>
    </g>
    <g id="xtick_7">
     <g id="line2d_7">
      <g>
       <use style="stroke:#000000;stroke-width:0.8;" x="312.709091" xlink:href="#m41f11f0f77" y="252"/>
      </g>
     </g>
     <g id="text_7">
      <!-- 12 -->
      <g transform="translate(306.346591 266.598437)scale(0.1 -0.1)">
       <use xlink:href="#DejaVuSans-49"/>
       <use x="63.623047" xlink:href="#DejaVuSans-50"/>
      </g>
     </g>
    </g>
    <g id="xtick_8">
     <g id="line2d_8">
      <g>
       <use style="stroke:#000000;stroke-width:0.8;" x="353.290909" xlink:href="#m41f11f0f77" y="252"/>
      </g>
     </g>
     <g id="text_8">
      <!-- 14 -->
      <g transform="translate(346.928409 266.598437)scale(0.1 -0.1)">
       <use xlink:href="#DejaVuSans-49"/>
       <use x="63.623047" xlink:href="#DejaVuSans-52"/>
      </g>
     </g>
    </g>
    <g id="text_9">
     <!-- Time [min] -->
     <defs>
      <path d="M -0.296875 72.90625 
L 61.375 72.90625 
L 61.375 64.59375 
L 35.5 64.59375 
L 35.5 0 
L 25.59375 0 
L 25.59375 64.59375 
L -0.296875 64.59375 
z
" id="DejaVuSans-84"/>
      <path d="M 9.421875 54.6875 
L 18.40625 54.6875 
L 18.40625 0 
L 9.421875 0 
z
M 9.421875 75.984375 
L 18.40625 75.984375 
L 18.40625 64.59375 
L 9.421875 64.59375 
z
" id="DejaVuSans-105"/>
      <path d="M 52 44.1875 
Q 55.375 50.25 60.0625 53.125 
Q 64.75 56 71.09375 56 
Q 79.640625 56 84.28125 50.015625 
Q 88.921875 44.046875 88.921875 33.015625 
L 88.921875 0 
L 79.890625 0 
L 79.890625 32.71875 
Q 79.890625 40.578125 77.09375 44.375 
Q 74.3125 48.1875 68.609375 48.1875 
Q 61.625 48.1875 57.5625 43.546875 
Q 53.515625 38.921875 53.515625 30.90625 
L 53.515625 0 
L 44.484375 0 
L 44.484375 32.71875 
Q 44.484375 40.625 41.703125 44.40625 
Q 38.921875 48.1875 33.109375 48.1875 
Q 26.21875 48.1875 22.15625 43.53125 
Q 18.109375 38.875 18.109375 30.90625 
L 18.109375 0 
L 9.078125 0 
L 9.078125 54.6875 
L 18.109375 54.6875 
L 18.109375 46.1875 
Q 21.1875 51.21875 25.484375 53.609375 
Q 29.78125 56 35.6875 56 
Q 41.65625 56 45.828125 52.96875 
Q 50 49.953125 52 44.1875 
z
" id="DejaVuSans-109"/>
      <path d="M 56.203125 29.59375 
L 56.203125 25.203125 
L 14.890625 25.203125 
Q 15.484375 15.921875 20.484375 11.0625 
Q 25.484375 6.203125 34.421875 6.203125 
Q 39.59375 6.203125 44.453125 7.46875 
Q 49.3125 8.734375 54.109375 11.28125 
L 54.109375 2.78125 
Q 49.265625 0.734375 44.1875 -0.34375 
Q 39.109375 -1.421875 33.890625 -1.421875 
Q 20.796875 -1.421875 13.15625 6.1875 
Q 5.515625 13.8125 5.515625 26.8125 
Q 5.515625 40.234375 12.765625 48.109375 
Q 20.015625 56 32.328125 56 
Q 43.359375 56 49.78125 48.890625 
Q 56.203125 41.796875 56.203125 29.59375 
z
M 47.21875 32.234375 
Q 47.125 39.59375 43.09375 43.984375 
Q 39.0625 48.390625 32.421875 48.390625 
Q 24.90625 48.390625 20.390625 44.140625 
Q 15.875 39.890625 15.1875 32.171875 
z
" id="DejaVuSans-101"/>
      <path id="DejaVuSans-32"/>
      <path d="M 8.59375 75.984375 
L 29.296875 75.984375 
L 29.296875 69 
L 17.578125 69 
L 17.578125 -6.203125 
L 29.296875 -6.203125 
L 29.296875 -13.1875 
L 8.59375 -13.1875 
z
" id="DejaVuSans-91"/>
      <path d="M 54.890625 33.015625 
L 54.890625 0 
L 45.90625 0 
L 45.90625 32.71875 
Q 45.90625 40.484375 42.875 44.328125 
Q 39.84375 48.1875 33.796875 48.1875 
Q 26.515625 48.1875 22.3125 43.546875 
Q 18.109375 38.921875 18.109375 30.90625 
L 18.109375 0 
L 9.078125 0 
L 9.078125 54.6875 
L 18.109375 54.6875 
L 18.109375 46.1875 
Q 21.34375 51.125 25.703125 53.5625 
Q 30.078125 56 35.796875 56 
Q 45.21875 56 50.046875 50.171875 
Q 54.890625 44.34375 54.890625 33.015625 
z
" id="DejaVuSans-110"/>
      <path d="M 30.421875 75.984375 
L 30.421875 -13.1875 
L 9.71875 -13.1875 
L 9.71875 -6.203125 
L 21.390625 -6.203125 
L 21.390625 69 
L 9.71875 69 
L 9.71875 75.984375 
z
" id="DejaVuSans-93"/>
     </defs>
     <g transform="translate(194.09375 280.276563)scale(0.1 -0.1)">
      <use xlink:href="#DejaVuSans-84"/>
      <use x="61.037109" xlink:href="#DejaVuSans-105"/>
      <use x="88.820312" xlink:href="#DejaVuSans-109"/>
      <use x="186.232422" xlink:href="#DejaVuSans-101"/>
      <use x="247.755859" xlink:href="#DejaVuSans-32"/>
      <use x="279.542969" xlink:href="#DejaVuSans-91"/>
      <use x="318.556641" xlink:href="#DejaVuSans-109"/>
      <use x="415.96875" xlink:href="#DejaVuSans-105"/>
      <use x="443.751953" xlink:href="#DejaVuSans-110"/>
      <use x="507.130859" xlink:href="#DejaVuSans-93"/>
     </g>
    </g>
   </g>
   <g id="matplotlib.axis_2">
    <g id="ytick_1">
     <g id="line2d_9">
      <defs>
       <path d="M 0 0 
L -3.5 0 
" id="m0bac96e4e8" style="stroke:#000000;stroke-width:0.8;"/>
      </defs>
      <g>
       <use style="stroke:#000000;stroke-width:0.8;" x="54" xlink:href="#m0bac96e4e8" y="235.83812"/>
      </g>
     </g>
     <g id="text_10">
      <!-- −200 -->
      <defs>
       <path d="M 10.59375 35.5 
L 73.1875 35.5 
L 73.1875 27.203125 
L 10.59375 27.203125 
z
" id="DejaVuSans-8722"/>
      </defs>
      <g transform="translate(19.532812 239.637339)scale(0.1 -0.1)">
       <use xlink:href="#DejaVuSans-8722"/>
       <use x="83.789062" xlink:href="#DejaVuSans-50"/>
       <use x="147.412109" xlink:href="#DejaVuSans-48"/>
       <use x="211.035156" xlink:href="#DejaVuSans-48"/>
      </g>
     </g>
    </g>
    <g id="ytick_2">
     <g id="line2d_10">
      <g>
       <use style="stroke:#000000;stroke-width:0.8;" x="54" xlink:href="#m0bac96e4e8" y="196.972073"/>
      </g>
     </g>
     <g id="text_11">
      <!-- 0 -->
      <g transform="translate(40.6375 200.771292)scale(0.1 -0.1)">
       <use xlink:href="#DejaVuSans-48"/>
      </g>
     </g>
    </g>
    <g id="ytick_3">
     <g id="line2d_11">
      <g>
       <use style="stroke:#000000;stroke-width:0.8;" x="54" xlink:href="#m0bac96e4e8" y="158.106026"/>
      </g>
     </g>
     <g id="text_12">
      <!-- 200 -->
      <g transform="translate(27.9125 161.905245)scale(0.1 -0.1)">
       <use xlink:href="#DejaVuSans-50"/>
       <use x="63.623047" xlink:href="#DejaVuSans-48"/>
       <use x="127.246094" xlink:href="#DejaVuSans-48"/>
      </g>
     </g>
    </g>
    <g id="ytick_4">
     <g id="line2d_12">
      <g>
       <use style="stroke:#000000;stroke-width:0.8;" x="54" xlink:href="#m0bac96e4e8" y="119.239979"/>
      </g>
     </g>
     <g id="text_13">
      <!-- 400 -->
      <g transform="translate(27.9125 123.039198)scale(0.1 -0.1)">
       <use xlink:href="#DejaVuSans-52"/>
       <use x="63.623047" xlink:href="#DejaVuSans-48"/>
       <use x="127.246094" xlink:href="#DejaVuSans-48"/>
      </g>
     </g>
    </g>
    <g id="ytick_5">
     <g id="line2d_13">
      <g>
       <use style="stroke:#000000;stroke-width:0.8;" x="54" xlink:href="#m0bac96e4e8" y="80.373932"/>
      </g>
     </g>
     <g id="text_14">
      <!-- 600 -->
      <g transform="translate(27.9125 84.173151)scale(0.1 -0.1)">
       <use xlink:href="#DejaVuSans-54"/>
       <use x="63.623047" xlink:href="#DejaVuSans-48"/>
       <use x="127.246094" xlink:href="#DejaVuSans-48"/>
      </g>
     </g>
    </g>
    <g id="ytick_6">
     <g id="line2d_14">
      <g>
       <use style="stroke:#000000;stroke-width:0.8;" x="54" xlink:href="#m0bac96e4e8" y="41.507885"/>
      </g>
     </g>
     <g id="text_15">
      <!-- 800 -->
      <g transform="translate(27.9125 45.307104)scale(0.1 -0.1)">
       <use xlink:href="#DejaVuSans-56"/>
       <use x="63.623047" xlink:href="#DejaVuSans-48"/>
       <use x="127.246094" xlink:href="#DejaVuSans-48"/>
      </g>
     </g>
    </g>
   </g>
   <g id="line2d_15">
    <path clip-path="url(#p8da49d1268)" d="M 69.218182 191.142166 
L 72.292562 202.58905 
L 75.366942 207.159676 
L 78.441322 208.599375 
L 81.515702 208.607943 
L 84.590083 207.809976 
L 87.664463 206.831252 
L 90.738843 205.915536 
L 93.813223 205.05771 
L 96.887603 204.2846 
L 99.961983 203.602924 
L 103.036364 203.007352 
L 106.110744 202.430104 
L 109.185124 201.994895 
L 112.259504 201.669335 
L 115.333884 201.415416 
L 118.408264 201.210988 
L 121.482645 201.07097 
L 124.557025 200.989735 
L 127.631405 200.953191 
L 130.705785 200.951045 
L 133.780165 200.975912 
L 136.854545 201.022212 
L 139.928926 201.085553 
L 143.003306 201.162596 
L 146.077686 201.25078 
L 149.152066 201.348093 
L 152.226446 201.452936 
L 155.300826 201.564024 
L 158.375207 201.680314 
L 161.449587 201.800948 
L 164.523967 201.925217 
L 167.598347 202.052535 
L 170.672727 202.182412 
L 173.747107 202.314437 
L 176.821488 202.44827 
L 179.895868 202.583623 
L 182.970248 202.720255 
L 186.044628 202.857964 
L 189.119008 202.996579 
L 192.193388 203.135958 
L 195.267769 203.275979 
L 198.342149 203.416542 
L 201.416529 203.557562 
L 204.490909 203.698966 
L 207.565289 203.840694 
L 210.639669 203.982695 
L 213.71405 204.124925 
L 216.78843 204.267351 
L 219.86281 204.40994 
L 222.93719 204.552666 
L 226.01157 204.695509 
L 229.08595 204.838449 
L 232.160331 204.981473 
L 235.234711 205.124565 
L 238.309091 205.267716 
L 241.383471 205.410917 
L 244.457851 205.554159 
L 247.532231 205.697437 
L 250.606612 205.840745 
L 253.680992 205.984076 
L 256.755372 206.127431 
L 259.829752 206.270801 
L 262.904132 206.414187 
L 265.978512 206.557587 
L 269.052893 206.700995 
L 272.127273 206.844415 
L 275.201653 206.98784 
L 278.276033 207.131273 
L 281.350413 207.274711 
L 284.424793 207.418153 
L 287.499174 207.561599 
L 290.573554 207.705049 
L 293.647934 207.8485 
L 296.722314 207.991956 
L 299.796694 208.135412 
L 302.871074 208.27887 
L 305.945455 208.42233 
L 309.019835 208.56579 
L 312.094215 208.709253 
L 315.168595 208.852713 
L 318.242975 208.996177 
L 321.317355 209.139641 
L 324.391736 209.283105 
L 327.466116 209.42657 
L 330.540496 209.570035 
L 333.614876 209.7135 
L 336.689256 209.856966 
L 339.763636 210.000431 
L 342.838017 210.143898 
L 345.912397 210.287364 
L 348.986777 210.430829 
L 352.061157 210.574297 
L 355.135537 210.717762 
L 358.209917 210.861229 
L 361.284298 211.004696 
L 364.358678 211.148162 
L 367.433058 211.291629 
L 370.507438 211.435095 
L 373.581818 211.578562 
" style="fill:none;stroke:#1f77b4;stroke-linecap:square;stroke-width:1.5;"/>
   </g>
   <g id="line2d_16">
    <path clip-path="url(#p8da49d1268)" d="M 69.218182 191.142166 
L 72.292562 193.805733 
L 75.366942 198.718049 
L 78.441322 203.793446 
L 81.515702 208.544527 
L 84.590083 212.798947 
L 87.664463 216.370868 
L 90.738843 219.392333 
L 93.813223 221.988733 
L 96.887603 224.177889 
L 99.961983 225.992969 
L 103.036364 227.490669 
L 106.110744 228.76632 
L 109.185124 229.75849 
L 112.259504 230.506991 
L 115.333884 231.056701 
L 118.408264 231.399731 
L 121.482645 231.586115 
L 124.557025 231.669467 
L 127.631405 231.655171 
L 130.705785 231.552529 
L 133.780165 231.371669 
L 136.854545 231.12155 
L 139.928926 230.810941 
L 143.003306 230.448179 
L 146.077686 230.040673 
L 149.152066 229.594914 
L 152.226446 229.116572 
L 155.300826 228.610537 
L 158.375207 228.080997 
L 161.449587 227.531531 
L 164.523967 226.965188 
L 167.598347 226.384561 
L 170.672727 225.791853 
L 173.747107 225.188929 
L 176.821488 224.577371 
L 179.895868 223.958518 
L 182.970248 223.333501 
L 186.044628 222.703279 
L 189.119008 222.068663 
L 192.193388 221.430335 
L 195.267769 220.788876 
L 198.342149 220.144772 
L 201.416529 219.498437 
L 204.490909 218.850219 
L 207.565289 218.200414 
L 210.639669 217.549265 
L 213.71405 216.89699 
L 216.78843 216.243756 
L 219.86281 215.589719 
L 222.93719 214.935003 
L 226.01157 214.279712 
L 229.08595 213.623942 
L 232.160331 212.96776 
L 235.234711 212.311238 
L 238.309091 211.654426 
L 241.383471 210.997366 
L 244.457851 210.340102 
L 247.532231 209.682664 
L 250.606612 209.025078 
L 253.680992 208.367374 
L 256.755372 207.709557 
L 259.829752 207.051658 
L 262.904132 206.393684 
L 265.978512 205.735644 
L 269.052893 205.077557 
L 272.127273 204.419419 
L 275.201653 203.76125 
L 278.276033 203.103046 
L 281.350413 202.444814 
L 284.424793 201.786562 
L 287.499174 201.128289 
L 290.573554 200.470001 
L 293.647934 199.811702 
L 296.722314 199.153386 
L 299.796694 198.495066 
L 302.871074 197.836735 
L 305.945455 197.178396 
L 309.019835 196.520056 
L 312.094215 195.861704 
L 315.168595 195.203357 
L 318.242975 194.544999 
L 321.317355 193.88664 
L 324.391736 193.228281 
L 327.466116 192.569916 
L 330.540496 191.911552 
L 333.614876 191.253187 
L 336.689256 190.594818 
L 339.763636 189.936452 
L 342.838017 189.27808 
L 345.912397 188.61971 
L 348.986777 187.961341 
L 352.061157 187.302967 
L 355.135537 186.6446 
L 358.209917 185.986225 
L 361.284298 185.327852 
L 364.358678 184.669482 
L 367.433058 184.011106 
L 370.507438 183.352735 
L 373.581818 182.694361 
" style="fill:none;stroke:#ff7f0e;stroke-linecap:square;stroke-width:1.5;"/>
   </g>
   <g id="line2d_17">
    <path clip-path="url(#p8da49d1268)" d="M 69.218182 191.142166 
L 72.292562 195.958051 
L 75.366942 201.706315 
L 78.441322 207.311201 
L 81.515702 212.436463 
L 84.590083 217.135678 
L 87.664463 221.398171 
L 90.738843 225.07328 
L 93.813223 228.191145 
L 96.887603 230.848004 
L 99.961983 233.113242 
L 103.036364 235.02736 
L 106.110744 236.633991 
L 109.185124 237.969574 
L 112.259504 239.060984 
L 115.333884 239.940699 
L 118.408264 240.677865 
L 121.482645 241.248749 
L 124.557025 241.641177 
L 127.631405 241.89323 
L 130.705785 242.031667 
L 133.780165 242.073734 
L 136.854545 242.031801 
L 139.928926 241.921223 
L 143.003306 241.753448 
L 146.077686 241.537405 
L 149.152066 241.280849 
L 152.226446 240.990253 
L 155.300826 240.670964 
L 158.375207 240.327469 
L 161.449587 239.96356 
L 164.523967 239.582435 
L 167.598347 239.186783 
L 170.672727 238.778871 
L 173.747107 238.360613 
L 176.821488 237.933625 
L 179.895868 237.499271 
L 182.970248 237.0587 
L 186.044628 236.612886 
L 189.119008 236.162643 
L 192.193388 235.708673 
L 195.267769 235.251548 
L 198.342149 234.791768 
L 201.416529 234.329747 
L 204.490909 233.865838 
L 207.565289 233.400326 
L 210.639669 232.933486 
L 213.71405 232.465483 
L 216.78843 231.996552 
L 219.86281 231.526802 
L 222.93719 231.056366 
L 226.01157 230.585372 
L 229.08595 230.113875 
L 232.160331 229.641987 
L 235.234711 229.169739 
L 238.309091 228.697203 
L 241.383471 228.224438 
L 244.457851 227.751452 
L 247.532231 227.278294 
L 250.606612 226.805002 
L 253.680992 226.331553 
L 256.755372 225.858039 
L 259.829752 225.384412 
L 262.904132 224.910718 
L 265.978512 224.436972 
L 269.052893 223.963147 
L 272.127273 223.489312 
L 275.201653 223.015402 
L 278.276033 222.541483 
L 281.350413 222.067543 
L 284.424793 221.593561 
L 287.499174 221.119577 
L 290.573554 220.645573 
L 293.647934 220.171539 
L 296.722314 219.69752 
L 299.796694 219.223467 
L 302.871074 218.749423 
L 305.945455 218.275373 
L 309.019835 217.801296 
L 312.094215 217.327249 
L 315.168595 216.853154 
L 318.242975 216.37909 
L 321.317355 215.905018 
L 324.391736 215.430926 
L 327.466116 214.956856 
L 330.540496 214.482768 
L 333.614876 214.008678 
L 336.689256 213.534599 
L 339.763636 213.060498 
L 342.838017 212.586421 
L 345.912397 212.112333 
L 348.986777 211.638232 
L 352.061157 211.16416 
L 355.135537 210.690044 
L 358.209917 210.215969 
L 361.284298 209.741877 
L 364.358678 209.267775 
L 367.433058 208.793698 
L 370.507438 208.319593 
L 373.581818 207.845505 
" style="fill:none;stroke:#2ca02c;stroke-linecap:square;stroke-width:1.5;"/>
   </g>
   <g id="line2d_18">
    <path clip-path="url(#p8da49d1268)" d="M 69.218182 191.142166 
L 72.292562 183.711358 
L 75.366942 175.194904 
L 78.441322 167.481362 
L 81.515702 160.663152 
L 84.590083 154.838931 
L 87.664463 149.823961 
L 90.738843 145.459211 
L 93.813223 141.647417 
L 96.887603 138.315745 
L 99.961983 135.408454 
L 103.036364 132.871703 
L 106.110744 130.657082 
L 109.185124 128.724452 
L 112.259504 127.038151 
L 115.333884 125.565692 
L 118.408264 124.281084 
L 121.482645 123.161908 
L 124.557025 122.180284 
L 127.631405 121.313707 
L 130.705785 120.544355 
L 133.780165 119.86019 
L 136.854545 119.252846 
L 139.928926 118.709539 
L 143.003306 118.214132 
L 146.077686 117.758202 
L 149.152066 117.33592 
L 152.226446 116.941732 
L 155.300826 116.570636 
L 158.375207 116.218813 
L 161.449587 115.883161 
L 164.523967 115.561061 
L 167.598347 115.250284 
L 170.672727 114.948983 
L 173.747107 114.655627 
L 176.821488 114.36894 
L 179.895868 114.087856 
L 182.970248 113.811474 
L 186.044628 113.539035 
L 189.119008 113.269925 
L 192.193388 113.003583 
L 195.267769 112.739603 
L 198.342149 112.477601 
L 201.416529 112.217256 
L 204.490909 111.9583 
L 207.565289 111.700562 
L 210.639669 111.443728 
L 213.71405 111.187879 
L 216.78843 110.932578 
L 219.86281 110.677935 
L 222.93719 110.423815 
L 226.01157 110.170033 
L 229.08595 109.916706 
L 232.160331 109.663585 
L 235.234711 109.410796 
L 238.309091 109.158207 
L 241.383471 108.905715 
L 244.457851 108.653456 
L 247.532231 108.401303 
L 250.606612 108.149198 
L 253.680992 107.897352 
L 256.755372 107.645381 
L 259.829752 107.393602 
L 262.904132 107.14184 
L 265.978512 106.89007 
L 269.052893 106.638469 
L 272.127273 106.386729 
L 275.201653 106.135201 
L 278.276033 105.883586 
L 281.350413 105.631963 
L 284.424793 105.380449 
L 287.499174 105.12887 
L 290.573554 104.877318 
L 293.647934 104.625863 
L 296.722314 104.374279 
L 299.796694 104.122829 
L 302.871074 103.871295 
L 305.945455 103.619765 
L 309.019835 103.368346 
L 312.094215 103.116752 
L 315.168595 102.865381 
L 318.242975 102.613844 
L 321.317355 102.362334 
L 324.391736 102.110911 
L 327.466116 101.85937 
L 330.540496 101.607914 
L 333.614876 101.356458 
L 336.689256 101.104943 
L 339.763636 100.853536 
L 342.838017 100.602003 
L 345.912397 100.350523 
L 348.986777 100.099103 
L 352.061157 99.847536 
L 355.135537 99.59619 
L 358.209917 99.344638 
L 361.284298 99.093163 
L 364.358678 98.841743 
L 367.433058 98.590196 
L 370.507438 98.338789 
L 373.581818 98.087294 
" style="fill:none;stroke:#d62728;stroke-linecap:square;stroke-width:1.5;"/>
   </g>
   <g id="line2d_19">
    <path clip-path="url(#p8da49d1268)" d="M 69.218182 191.142166 
L 72.292562 196.53066 
L 75.366942 203.30552 
L 78.441322 208.518188 
L 81.515702 212.078161 
L 84.590083 214.235284 
L 87.664463 215.560868 
L 90.738843 216.490638 
L 93.813223 217.188851 
L 96.887603 217.761157 
L 99.961983 218.257828 
L 103.036364 218.677908 
L 106.110744 219.040311 
L 109.185124 219.362924 
L 112.259504 219.653142 
L 115.333884 219.911654 
L 118.408264 220.141038 
L 121.482645 220.344727 
L 124.557025 220.523175 
L 127.631405 220.677752 
L 130.705785 220.810755 
L 133.780165 220.924847 
L 136.854545 221.02381 
L 139.928926 221.109575 
L 143.003306 221.187641 
L 146.077686 221.257003 
L 149.152066 221.318204 
L 152.226446 221.367397 
L 155.300826 221.407227 
L 158.375207 221.440464 
L 161.449587 221.468536 
L 164.523967 221.491977 
L 167.598347 221.511459 
L 170.672727 221.527664 
L 173.747107 221.54123 
L 176.821488 221.552641 
L 179.895868 221.562183 
L 182.970248 221.570162 
L 186.044628 221.576863 
L 189.119008 221.582421 
L 192.193388 221.587152 
L 195.267769 221.591097 
L 198.342149 221.594322 
L 201.416529 221.597116 
L 204.490909 221.599495 
L 207.565289 221.601215 
L 210.639669 221.603221 
L 213.71405 221.603918 
L 216.78843 221.605451 
L 219.86281 221.606336 
L 222.93719 221.606902 
L 226.01157 221.607879 
L 229.08595 221.60807 
L 232.160331 221.608785 
L 235.234711 221.60888 
L 238.309091 221.608993 
L 241.383471 221.609595 
L 244.457851 221.609609 
L 247.532231 221.609718 
L 250.606612 221.610182 
L 253.680992 221.609511 
L 256.755372 221.610143 
L 259.829752 221.609906 
L 262.904132 221.609909 
L 265.978512 221.610253 
L 269.052893 221.609719 
L 272.127273 221.610307 
L 275.201653 221.609668 
L 278.276033 221.609747 
L 281.350413 221.610011 
L 284.424793 221.609651 
L 287.499174 221.609814 
L 290.573554 221.609866 
L 293.647934 221.609348 
L 296.722314 221.609723 
L 299.796694 221.609265 
L 302.871074 221.609397 
L 305.945455 221.609542 
L 309.019835 221.608976 
L 312.094215 221.609581 
L 315.168595 221.60874 
L 318.242975 221.609008 
L 321.317355 221.609113 
L 324.391736 221.608649 
L 327.466116 221.608986 
L 330.540496 221.608765 
L 333.614876 221.608548 
L 336.689256 221.608726 
L 339.763636 221.60819 
L 342.838017 221.608505 
L 345.912397 221.608464 
L 348.986777 221.608032 
L 352.061157 221.608569 
L 355.135537 221.607653 
L 358.209917 221.6081 
L 361.284298 221.60804 
L 364.358678 221.60761 
L 367.433058 221.608031 
L 370.507438 221.607524 
L 373.581818 221.607597 
" style="fill:none;stroke:#9467bd;stroke-linecap:square;stroke-width:1.5;"/>
   </g>
   <g id="line2d_20">
    <path clip-path="url(#p8da49d1268)" d="M 69.218182 191.142166 
L 72.292562 192.598072 
L 75.366942 196.467231 
L 78.441322 201.066555 
L 81.515702 204.701781 
L 84.590083 206.645701 
L 87.664463 207.599377 
L 90.738843 208.051638 
L 93.813223 208.370084 
L 96.887603 208.759451 
L 99.961983 209.186777 
L 103.036364 209.535338 
L 106.110744 209.867556 
L 109.185124 210.220715 
L 112.259504 210.560925 
L 115.333884 210.872298 
L 118.408264 211.156657 
L 121.482645 211.407051 
L 124.557025 211.631197 
L 127.631405 211.834624 
L 130.705785 212.014687 
L 133.780165 212.170611 
L 136.854545 212.305509 
L 139.928926 212.421907 
L 143.003306 212.52331 
L 146.077686 212.612263 
L 149.152066 212.688885 
L 152.226446 212.758397 
L 155.300826 212.820096 
L 158.375207 212.87435 
L 161.449587 212.920761 
L 164.523967 212.956489 
L 167.598347 212.98501 
L 170.672727 213.008708 
L 173.747107 213.028556 
L 176.821488 213.044956 
L 179.895868 213.058344 
L 182.970248 213.069241 
L 186.044628 213.078069 
L 189.119008 213.085353 
L 192.193388 213.091487 
L 195.267769 213.09624 
L 198.342149 213.100901 
L 201.416529 213.104023 
L 204.490909 213.106494 
L 207.565289 213.109532 
L 210.639669 213.109716 
L 213.71405 213.113562 
L 216.78843 213.113021 
L 219.86281 213.11398 
L 222.93719 213.115307 
L 226.01157 213.114479 
L 229.08595 213.115952 
L 232.160331 213.115073 
L 235.234711 213.116038 
L 238.309091 213.116637 
L 241.383471 213.115199 
L 244.457851 213.11564 
L 247.532231 213.115533 
L 250.606612 213.114013 
L 253.680992 213.116369 
L 256.755372 213.114004 
L 259.829752 213.114673 
L 262.904132 213.114386 
L 265.978512 213.1128 
L 269.052893 213.114263 
L 272.127273 213.111697 
L 275.201653 213.113428 
L 278.276033 213.112639 
L 281.350413 213.111132 
L 284.424793 213.111853 
L 287.499174 213.110643 
L 290.573554 213.109819 
L 293.647934 213.110983 
L 296.722314 213.108979 
L 299.796694 213.109982 
L 302.871074 213.108847 
L 305.945455 213.107658 
L 309.019835 213.108961 
L 312.094215 213.10611 
L 315.168595 213.108363 
L 318.242975 213.106728 
L 321.317355 213.105657 
L 324.391736 213.106641 
L 327.466116 213.104713 
L 330.540496 213.104776 
L 333.614876 213.104806 
L 336.689256 213.103438 
L 339.763636 213.104673 
L 342.838017 213.102837 
L 345.912397 213.102286 
L 348.986777 213.103084 
L 352.061157 213.100448 
L 355.135537 213.102944 
L 358.209917 213.100649 
L 361.284298 213.100158 
L 364.358678 213.101008 
L 367.433058 213.098773 
L 370.507438 213.099839 
L 373.581818 213.098838 
" style="fill:none;stroke:#8c564b;stroke-linecap:square;stroke-width:1.5;"/>
   </g>
   <g id="line2d_21">
    <path clip-path="url(#p8da49d1268)" d="M 69.218182 191.142166 
L 72.292562 191.460328 
L 75.366942 192.935529 
L 78.441322 194.215335 
L 81.515702 192.326684 
L 84.590083 188.005926 
L 87.664463 184.115403 
L 90.738843 181.23518 
L 93.813223 179.420759 
L 96.887603 178.686965 
L 99.961983 178.569 
L 103.036364 178.844004 
L 106.110744 179.175067 
L 109.185124 179.544551 
L 112.259504 179.799002 
L 115.333884 180.164865 
L 118.408264 180.54739 
L 121.482645 180.854982 
L 124.557025 181.177416 
L 127.631405 181.492113 
L 130.705785 181.761349 
L 133.780165 181.995359 
L 136.854545 182.194519 
L 139.928926 182.365936 
L 143.003306 182.51905 
L 146.077686 182.653673 
L 149.152066 182.768005 
L 152.226446 182.865748 
L 155.300826 182.948636 
L 158.375207 183.018532 
L 161.449587 183.078784 
L 164.523967 183.133311 
L 167.598347 183.180883 
L 170.672727 183.220965 
L 173.747107 183.255584 
L 176.821488 183.28154 
L 179.895868 183.300094 
L 182.970248 183.314584 
L 186.044628 183.3259 
L 189.119008 183.335675 
L 192.193388 183.341599 
L 195.267769 183.349312 
L 198.342149 183.35108 
L 201.416529 183.355398 
L 204.490909 183.358143 
L 207.565289 183.356031 
L 210.639669 183.361852 
L 213.71405 183.352998 
L 216.78843 183.357943 
L 219.86281 183.356483 
L 222.93719 183.352888 
L 226.01157 183.355626 
L 229.08595 183.350135 
L 232.160331 183.35182 
L 235.234711 183.347152 
L 238.309091 183.343278 
L 241.383471 183.345704 
L 244.457851 183.341687 
L 247.532231 183.339234 
L 250.606612 183.341173 
L 253.680992 183.330338 
L 256.755372 183.335121 
L 259.829752 183.329684 
L 262.904132 183.327247 
L 265.978512 183.328789 
L 269.052893 183.320474 
L 272.127273 183.325034 
L 275.201653 183.315922 
L 278.276033 183.314898 
L 281.350413 183.316248 
L 284.424793 183.310119 
L 287.499174 183.310183 
L 290.573554 183.309002 
L 293.647934 183.301299 
L 296.722314 183.304323 
L 299.796694 183.297283 
L 302.871074 183.297258 
L 305.945455 183.297159 
L 309.019835 183.289074 
L 312.094215 183.294313 
L 315.168595 183.283238 
L 318.242975 183.28484 
L 321.317355 183.284634 
L 324.391736 183.277559 
L 327.466116 183.279837 
L 330.540496 183.275714 
L 333.614876 183.271603 
L 336.689256 183.272473 
L 339.763636 183.264593 
L 342.838017 183.266867 
L 345.912397 183.264676 
L 348.986777 183.258186 
L 352.061157 183.262721 
L 355.135537 183.250769 
L 358.209917 183.254537 
L 361.284298 183.252407 
L 364.358678 183.245789 
L 367.433058 183.249043 
L 370.507438 183.241682 
L 373.581818 183.240951 
" style="fill:none;stroke:#e377c2;stroke-linecap:square;stroke-width:1.5;"/>
   </g>
   <g id="line2d_22">
    <path clip-path="url(#p8da49d1268)" d="M 69.218182 191.142166 
L 72.292562 191.175113 
L 75.366942 190.76517 
L 78.441322 186.766888 
L 81.515702 180.391389 
L 84.590083 175.306479 
L 87.664463 171.267243 
L 90.738843 167.516711 
L 93.813223 163.657287 
L 96.887603 159.440397 
L 99.961983 155.321791 
L 103.036364 151.754695 
L 106.110744 148.642837 
L 109.185124 146.30455 
L 112.259504 145.190354 
L 115.333884 145.295593 
L 118.408264 145.942144 
L 121.482645 146.699343 
L 124.557025 147.28644 
L 127.631405 147.734458 
L 130.705785 148.119166 
L 133.780165 148.551124 
L 136.854545 148.866742 
L 139.928926 149.177431 
L 143.003306 149.472565 
L 146.077686 149.707907 
L 149.152066 149.899807 
L 152.226446 150.058314 
L 155.300826 150.188131 
L 158.375207 150.300831 
L 161.449587 150.397075 
L 164.523967 150.471449 
L 167.598347 150.525688 
L 170.672727 150.567985 
L 173.747107 150.598625 
L 176.821488 150.621063 
L 179.895868 150.640741 
L 182.970248 150.653118 
L 186.044628 150.664752 
L 189.119008 150.666721 
L 192.193388 150.682429 
L 195.267769 150.675641 
L 198.342149 150.68182 
L 201.416529 150.668989 
L 204.490909 150.656829 
L 207.565289 150.656708 
L 210.639669 150.62704 
L 213.71405 150.643224 
L 216.78843 150.612582 
L 219.86281 150.601407 
L 222.93719 150.595793 
L 226.01157 150.569577 
L 229.08595 150.568344 
L 232.160331 150.544306 
L 235.234711 150.541335 
L 238.309091 150.533831 
L 241.383471 150.506219 
L 244.457851 150.498141 
L 247.532231 150.485169 
L 250.606612 150.457006 
L 253.680992 150.474334 
L 256.755372 150.437934 
L 259.829752 150.4357 
L 262.904132 150.421187 
L 265.978512 150.395139 
L 269.052893 150.399092 
L 272.127273 150.362882 
L 275.201653 150.374373 
L 278.276033 150.356686 
L 281.350413 150.331522 
L 284.424793 150.328167 
L 287.499174 150.306476 
L 290.573554 150.287322 
L 293.647934 150.293327 
L 296.722314 150.262468 
L 299.796694 150.265771 
L 302.871074 150.243327 
L 305.945455 150.221889 
L 309.019835 150.224863 
L 312.094215 150.185953 
L 315.168595 150.20412 
L 318.242975 150.177383 
L 321.317355 150.157849 
L 324.391736 150.157139 
L 327.466116 150.12865 
L 330.540496 150.11888 
L 333.614876 150.112353 
L 336.689256 150.088925 
L 339.763636 150.095135 
L 342.838017 150.065554 
L 345.912397 150.050363 
L 348.986777 150.048481 
L 352.061157 150.011576 
L 355.135537 150.032468 
L 358.209917 149.998351 
L 361.284298 149.985588 
L 364.358678 149.983396 
L 367.433058 149.951926 
L 370.507438 149.952765 
L 373.581818 149.933696 
" style="fill:none;stroke:#7f7f7f;stroke-linecap:square;stroke-width:1.5;"/>
   </g>
   <g id="line2d_23">
    <path clip-path="url(#p8da49d1268)" d="M 69.218182 191.142166 
L 72.292562 190.917042 
L 75.366942 187.696364 
L 78.441322 181.572489 
L 81.515702 176.891617 
L 84.590083 175.109274 
L 87.664463 173.878947 
L 90.738843 172.714188 
L 93.813223 171.420459 
L 96.887603 169.882786 
L 99.961983 168.05333 
L 103.036364 165.800208 
L 106.110744 163.465954 
L 109.185124 160.815626 
L 112.259504 157.663642 
L 115.333884 153.862159 
L 118.408264 150.189949 
L 121.482645 147.188465 
L 124.557025 144.753245 
L 127.631405 143.421562 
L 130.705785 143.40797 
L 133.780165 144.246067 
L 136.854545 145.18423 
L 139.928926 145.895621 
L 143.003306 146.390252 
L 146.077686 146.732731 
L 149.152066 147.118942 
L 152.226446 147.380931 
L 155.300826 147.618272 
L 158.375207 147.837612 
L 161.449587 147.993687 
L 164.523967 148.081714 
L 167.598347 148.136478 
L 170.672727 148.155244 
L 173.747107 148.151153 
L 176.821488 148.139851 
L 179.895868 148.112361 
L 182.970248 148.082031 
L 186.044628 148.030492 
L 189.119008 147.995617 
L 192.193388 147.89879 
L 195.267769 147.860996 
L 198.342149 147.758076 
L 201.416529 147.703673 
L 204.490909 147.636195 
L 207.565289 147.525243 
L 210.639669 147.503778 
L 213.71405 147.337159 
L 216.78843 147.314822 
L 219.86281 147.231475 
L 222.93719 147.131281 
L 226.01157 147.093184 
L 229.08595 146.979759 
L 232.160331 146.934787 
L 235.234711 146.829621 
L 238.309091 146.735442 
L 241.383471 146.698959 
L 244.457851 146.605382 
L 247.532231 146.526377 
L 250.606612 146.488613 
L 253.680992 146.331147 
L 256.755372 146.317649 
L 259.829752 146.211663 
L 262.904132 146.135518 
L 265.978512 146.094387 
L 269.052893 145.96626 
L 272.127273 145.953262 
L 275.201653 145.812743 
L 278.276033 145.748639 
L 281.350413 145.705275 
L 284.424793 145.59796 
L 287.499174 145.544549 
L 290.573554 145.481616 
L 293.647934 145.356012 
L 296.722314 145.327969 
L 299.796694 145.208841 
L 302.871074 145.155398 
L 305.945455 145.101202 
L 309.019835 144.976385 
L 312.094215 144.970638 
L 315.168595 144.813075 
L 318.242975 144.7735 
L 321.317355 144.716044 
L 324.391736 144.601076 
L 327.466116 144.567541 
L 330.540496 144.47853 
L 333.614876 144.38651 
L 336.689256 144.33891 
L 339.763636 144.212386 
L 342.838017 144.17923 
L 345.912397 144.106959 
L 348.986777 143.996312 
L 352.061157 143.984571 
L 355.135537 143.819508 
L 358.209917 143.799729 
L 361.284298 143.724635 
L 364.358678 143.61375 
L 367.433058 143.588893 
L 370.507438 143.470596 
L 373.581818 143.410536 
" style="fill:none;stroke:#bcbd22;stroke-linecap:square;stroke-width:1.5;"/>
   </g>
   <g id="line2d_24">
    <path clip-path="url(#p8da49d1268)" d="M 69.218182 191.142166 
L 72.292562 189.757431 
L 75.366942 183.856732 
L 78.441322 178.208124 
L 81.515702 176.556306 
L 84.590083 176.087432 
L 87.664463 175.83575 
L 90.738843 175.621175 
L 93.813223 175.391935 
L 96.887603 175.124152 
L 99.961983 174.80378 
L 103.036364 174.41202 
L 106.110744 173.926582 
L 109.185124 173.213905 
L 112.259504 172.185476 
L 115.333884 170.772362 
L 118.408264 168.951576 
L 121.482645 166.703051 
L 124.557025 164.357614 
L 127.631405 161.518809 
L 130.705785 158.041202 
L 133.780165 154.294719 
L 136.854545 151.244913 
L 139.928926 148.689962 
L 143.003306 147.083661 
L 146.077686 146.71081 
L 149.152066 147.346126 
L 152.226446 148.080408 
L 155.300826 148.635143 
L 158.375207 148.943777 
L 161.449587 148.943826 
L 164.523967 148.833233 
L 167.598347 148.717157 
L 170.672727 148.572382 
L 173.747107 148.367171 
L 176.821488 148.154441 
L 179.895868 147.926293 
L 182.970248 147.669103 
L 186.044628 147.40813 
L 189.119008 147.070709 
L 192.193388 146.837679 
L 195.267769 146.431795 
L 198.342149 146.147172 
L 201.416529 145.740475 
L 204.490909 145.356354 
L 207.565289 145.063825 
L 210.639669 144.575771 
L 213.71405 144.404331 
L 216.78843 143.921014 
L 219.86281 143.572061 
L 222.93719 143.26152 
L 226.01157 142.821411 
L 229.08595 142.543142 
L 232.160331 142.118477 
L 235.234711 141.818321 
L 238.309091 141.496523 
L 241.383471 141.056108 
L 244.457851 140.734595 
L 247.532231 140.383202 
L 250.606612 139.950233 
L 253.680992 139.752175 
L 256.755372 139.272057 
L 259.829752 138.974737 
L 262.904132 138.622498 
L 265.978512 138.195959 
L 269.052893 137.9504 
L 272.127273 137.468121 
L 275.201653 137.239846 
L 278.276033 136.862154 
L 281.350413 136.443344 
L 284.424793 136.156219 
L 287.499174 135.757266 
L 290.573554 135.380773 
L 293.647934 135.122592 
L 296.722314 134.67568 
L 299.796694 134.406239 
L 302.871074 134.011511 
L 305.945455 133.614789 
L 309.019835 133.364651 
L 312.094215 132.870576 
L 315.168595 132.676809 
L 318.242975 132.252662 
L 321.317355 131.862284 
L 324.391736 131.592537 
L 327.466116 131.153589 
L 330.540496 130.830985 
L 333.614876 130.507331 
L 336.689256 130.09943 
L 339.763636 129.844714 
L 342.838017 129.409667 
L 345.912397 129.05083 
L 348.986777 128.771782 
L 352.061157 128.290815 
L 355.135537 128.112125 
L 358.209917 127.6495 
L 361.284298 127.293537 
L 364.358678 127.01607 
L 367.433058 126.559314 
L 370.507438 126.29592 
L 373.581818 125.911444 
" style="fill:none;stroke:#17becf;stroke-linecap:square;stroke-width:1.5;"/>
   </g>
   <g id="line2d_25">
    <path clip-path="url(#p8da49d1268)" d="M 69.218182 191.142166 
L 72.292562 186.281514 
L 75.366942 179.960908 
L 78.441322 177.110992 
L 81.515702 176.512775 
L 84.590083 176.36542 
L 87.664463 176.30754 
L 90.738843 176.266497 
L 93.813223 176.225449 
L 96.887603 176.178014 
L 99.961983 176.121931 
L 103.036364 176.053709 
L 106.110744 175.96946 
L 109.185124 175.850649 
L 112.259504 175.676198 
L 115.333884 175.434277 
L 118.408264 175.117651 
L 121.482645 174.713399 
L 124.557025 174.154459 
L 127.631405 173.292688 
L 130.705785 172.026049 
L 133.780165 170.329764 
L 136.854545 168.1281 
L 139.928926 165.783554 
L 143.003306 162.954192 
L 146.077686 159.457972 
L 149.152066 155.3701 
L 152.226446 151.699887 
L 155.300826 148.546867 
L 158.375207 145.435105 
L 161.449587 142.940626 
L 164.523967 141.123356 
L 167.598347 140.02894 
L 170.672727 139.283889 
L 173.747107 138.302834 
L 176.821488 137.193952 
L 179.895868 135.941403 
L 182.970248 134.587971 
L 186.044628 133.195429 
L 189.119008 131.908872 
L 192.193388 130.332236 
L 195.267769 128.895872 
L 198.342149 127.265553 
L 201.416529 125.799537 
L 204.490909 124.310207 
L 207.565289 122.710712 
L 210.639669 121.388066 
L 213.71405 119.645782 
L 216.78843 118.333925 
L 219.86281 116.852861 
L 222.93719 115.331752 
L 226.01157 113.992154 
L 229.08595 112.430021 
L 232.160331 111.054529 
L 235.234711 109.515748 
L 238.309091 108.008587 
L 241.383471 106.655968 
L 244.457851 105.152878 
L 247.532231 103.690295 
L 250.606612 102.334841 
L 253.680992 100.67931 
L 256.755372 99.38641 
L 259.829752 97.862809 
L 262.904132 96.410742 
L 265.978512 95.055399 
L 269.052893 93.46811 
L 272.127273 92.186138 
L 275.201653 90.577197 
L 278.276033 89.162525 
L 281.350413 87.800238 
L 284.424793 86.271513 
L 287.499174 84.885503 
L 290.573554 83.471073 
L 293.647934 81.905194 
L 296.722314 80.579636 
L 299.796694 79.029932 
L 302.871074 77.639888 
L 305.945455 76.253656 
L 309.019835 74.678517 
L 312.094215 73.416951 
L 315.168595 71.768829 
L 318.242975 70.417224 
L 321.317355 69.022124 
L 324.391736 67.474365 
L 327.466116 66.142349 
L 330.540496 64.661058 
L 333.614876 63.18133 
L 336.689256 61.807497 
L 339.763636 60.240699 
L 342.838017 58.903066 
L 345.912397 57.469698 
L 348.986777 55.932674 
L 352.061157 54.655131 
L 355.135537 52.988774 
L 358.209917 51.686675 
L 361.284298 50.24831 
L 364.358678 48.710762 
L 367.433058 47.402154 
L 370.507438 45.845194 
L 373.581818 44.443636 
" style="fill:none;stroke:#1f77b4;stroke-linecap:square;stroke-width:1.5;"/>
   </g>
   <g id="line2d_26">
    <path clip-path="url(#p8da49d1268)" d="M 69.218182 191.142166 
L 72.292562 184.267045 
L 75.366942 182.67852 
L 78.441322 184.01993 
L 81.515702 186.146285 
L 84.590083 188.445459 
L 87.664463 190.781036 
L 90.738843 193.124004 
L 93.813223 195.468387 
L 96.887603 197.81273 
L 99.961983 200.156505 
L 103.036364 202.499599 
L 106.110744 204.842007 
L 109.185124 207.183018 
L 112.259504 209.520533 
L 115.333884 211.85304 
L 118.408264 214.179901 
L 121.482645 216.501205 
L 124.557025 218.818472 
L 127.631405 221.118129 
L 130.705785 223.389945 
L 133.780165 225.626958 
L 136.854545 227.831381 
L 139.928926 230.011874 
L 143.003306 232.097378 
L 146.077686 234.021038 
L 149.152066 235.747147 
L 152.226446 237.28545 
L 155.300826 238.643687 
L 158.375207 240.003205 
L 161.449587 241.115726 
L 164.523967 241.851351 
L 167.598347 242.116364 
L 170.672727 242.085433 
L 173.747107 241.988562 
L 176.821488 241.726169 
L 179.895868 241.298679 
L 182.970248 240.691733 
L 186.044628 239.878706 
L 189.119008 238.828148 
L 192.193388 237.68014 
L 195.267769 236.33009 
L 198.342149 234.863355 
L 201.416529 233.200298 
L 204.490909 231.401566 
L 207.565289 229.502472 
L 210.639669 227.420139 
L 213.71405 225.342166 
L 216.78843 223.067018 
L 219.86281 220.75438 
L 222.93719 218.381255 
L 226.01157 215.901281 
L 229.08595 213.425013 
L 232.160331 210.857345 
L 235.234711 208.288438 
L 238.309091 205.67514 
L 241.383471 202.99242 
L 244.457851 200.318085 
L 247.532231 197.609417 
L 250.606612 194.853309 
L 253.680992 192.151291 
L 256.755372 189.344998 
L 259.829752 186.58024 
L 262.904132 183.785945 
L 265.978512 180.957633 
L 269.052893 178.176212 
L 272.127273 175.312714 
L 275.201653 172.5214 
L 278.276033 169.676609 
L 281.350413 166.813961 
L 284.424793 163.986867 
L 287.499174 161.121468 
L 290.573554 158.259412 
L 293.647934 155.431047 
L 296.722314 152.541765 
L 299.796694 149.704175 
L 302.871074 146.826135 
L 305.945455 143.945491 
L 309.019835 141.109199 
L 312.094215 138.195653 
L 315.168595 135.374632 
L 318.242975 132.480566 
L 321.317355 129.596248 
L 324.391736 126.748008 
L 327.466116 123.847229 
L 330.540496 120.981985 
L 333.614876 118.115911 
L 336.689256 115.223733 
L 339.763636 112.377573 
L 342.838017 109.475866 
L 345.912397 106.596992 
L 348.986777 103.743165 
L 352.061157 100.826268 
L 355.135537 98.003403 
L 358.209917 95.091961 
L 361.284298 92.213359 
L 364.358678 89.358543 
L 367.433058 86.448518 
L 370.507438 83.598516 
L 373.581818 80.710815 
" style="fill:none;stroke:#ff7f0e;stroke-linecap:square;stroke-width:1.5;"/>
   </g>
   <g id="patch_3">
    <path d="M 54 252 
L 54 34.56 
" style="fill:none;stroke:#000000;stroke-linecap:square;stroke-linejoin:miter;stroke-width:0.8;"/>
   </g>
   <g id="patch_4">
    <path d="M 388.8 252 
L 388.8 34.56 
" style="fill:none;stroke:#000000;stroke-linecap:square;stroke-linejoin:miter;stroke-width:0.8;"/>
   </g>
   <g id="patch_5">
    <path d="M 54 252 
L 388.8 252 
" style="fill:none;stroke:#000000;stroke-linecap:square;stroke-linejoin:miter;stroke-width:0.8;"/>
   </g>
   <g id="patch_6">
    <path d="M 54 34.56 
L 388.8 34.56 
" style="fill:none;stroke:#000000;stroke-linecap:square;stroke-linejoin:miter;stroke-width:0.8;"/>
   </g>
   <g id="legend_1">
    <g id="patch_7">
     <path d="M 331.15625 218.6975 
L 381.8 218.6975 
Q 383.8 218.6975 383.8 216.6975 
L 383.8 41.56 
Q 383.8 39.56 381.8 39.56 
L 331.15625 39.56 
Q 329.15625 39.56 329.15625 41.56 
L 329.15625 216.6975 
Q 329.15625 218.6975 331.15625 218.6975 
z
" style="fill:#ffffff;opacity:0.8;stroke:#cccccc;stroke-linejoin:miter;"/>
    </g>
    <g id="line2d_27">
     <path d="M 333.15625 47.658437 
L 353.15625 47.658437 
" style="fill:none;stroke:#1f77b4;stroke-linecap:square;stroke-width:1.5;"/>
    </g>
    <g id="line2d_28"/>
    <g id="text_16">
     <!-- x12 -->
     <defs>
      <path d="M 54.890625 54.6875 
L 35.109375 28.078125 
L 55.90625 0 
L 45.3125 0 
L 29.390625 21.484375 
L 13.484375 0 
L 2.875 0 
L 24.125 28.609375 
L 4.6875 54.6875 
L 15.28125 54.6875 
L 29.78125 35.203125 
L 44.28125 54.6875 
z
" id="DejaVuSans-120"/>
     </defs>
     <g transform="translate(361.15625 51.158437)scale(0.1 -0.1)">
      <use xlink:href="#DejaVuSans-120"/>
      <use x="59.179688" xlink:href="#DejaVuSans-49"/>
      <use x="122.802734" xlink:href="#DejaVuSans-50"/>
     </g>
    </g>
    <g id="line2d_29">
     <path d="M 333.15625 62.336563 
L 353.15625 62.336563 
" style="fill:none;stroke:#ff7f0e;stroke-linecap:square;stroke-width:1.5;"/>
    </g>
    <g id="line2d_30"/>
    <g id="text_17">
     <!-- x13 -->
     <defs>
      <path d="M 40.578125 39.3125 
Q 47.65625 37.796875 51.625 33 
Q 55.609375 28.21875 55.609375 21.1875 
Q 55.609375 10.40625 48.1875 4.484375 
Q 40.765625 -1.421875 27.09375 -1.421875 
Q 22.515625 -1.421875 17.65625 -0.515625 
Q 12.796875 0.390625 7.625 2.203125 
L 7.625 11.71875 
Q 11.71875 9.328125 16.59375 8.109375 
Q 21.484375 6.890625 26.8125 6.890625 
Q 36.078125 6.890625 40.9375 10.546875 
Q 45.796875 14.203125 45.796875 21.1875 
Q 45.796875 27.640625 41.28125 31.265625 
Q 36.765625 34.90625 28.71875 34.90625 
L 20.21875 34.90625 
L 20.21875 43.015625 
L 29.109375 43.015625 
Q 36.375 43.015625 40.234375 45.921875 
Q 44.09375 48.828125 44.09375 54.296875 
Q 44.09375 59.90625 40.109375 62.90625 
Q 36.140625 65.921875 28.71875 65.921875 
Q 24.65625 65.921875 20.015625 65.03125 
Q 15.375 64.15625 9.8125 62.3125 
L 9.8125 71.09375 
Q 15.4375 72.65625 20.34375 73.4375 
Q 25.25 74.21875 29.59375 74.21875 
Q 40.828125 74.21875 47.359375 69.109375 
Q 53.90625 64.015625 53.90625 55.328125 
Q 53.90625 49.265625 50.4375 45.09375 
Q 46.96875 40.921875 40.578125 39.3125 
z
" id="DejaVuSans-51"/>
     </defs>
     <g transform="translate(361.15625 65.836563)scale(0.1 -0.1)">
      <use xlink:href="#DejaVuSans-120"/>
      <use x="59.179688" xlink:href="#DejaVuSans-49"/>
      <use x="122.802734" xlink:href="#DejaVuSans-51"/>
     </g>
    </g>
    <g id="line2d_31">
     <path d="M 333.15625 77.014688 
L 353.15625 77.014688 
" style="fill:none;stroke:#2ca02c;stroke-linecap:square;stroke-width:1.5;"/>
    </g>
    <g id="line2d_32"/>
    <g id="text_18">
     <!-- x14 -->
     <g transform="translate(361.15625 80.514688)scale(0.1 -0.1)">
      <use xlink:href="#DejaVuSans-120"/>
      <use x="59.179688" xlink:href="#DejaVuSans-49"/>
      <use x="122.802734" xlink:href="#DejaVuSans-52"/>
     </g>
    </g>
    <g id="line2d_33">
     <path d="M 333.15625 91.692813 
L 353.15625 91.692813 
" style="fill:none;stroke:#d62728;stroke-linecap:square;stroke-width:1.5;"/>
    </g>
    <g id="line2d_34"/>
    <g id="text_19">
     <!-- x15 -->
     <defs>
      <path d="M 10.796875 72.90625 
L 49.515625 72.90625 
L 49.515625 64.59375 
L 19.828125 64.59375 
L 19.828125 46.734375 
Q 21.96875 47.46875 24.109375 47.828125 
Q 26.265625 48.1875 28.421875 48.1875 
Q 40.625 48.1875 47.75 41.5 
Q 54.890625 34.8125 54.890625 23.390625 
Q 54.890625 11.625 47.5625 5.09375 
Q 40.234375 -1.421875 26.90625 -1.421875 
Q 22.3125 -1.421875 17.546875 -0.640625 
Q 12.796875 0.140625 7.71875 1.703125 
L 7.71875 11.625 
Q 12.109375 9.234375 16.796875 8.0625 
Q 21.484375 6.890625 26.703125 6.890625 
Q 35.15625 6.890625 40.078125 11.328125 
Q 45.015625 15.765625 45.015625 23.390625 
Q 45.015625 31 40.078125 35.4375 
Q 35.15625 39.890625 26.703125 39.890625 
Q 22.75 39.890625 18.8125 39.015625 
Q 14.890625 38.140625 10.796875 36.28125 
z
" id="DejaVuSans-53"/>
     </defs>
     <g transform="translate(361.15625 95.192813)scale(0.1 -0.1)">
      <use xlink:href="#DejaVuSans-120"/>
      <use x="59.179688" xlink:href="#DejaVuSans-49"/>
      <use x="122.802734" xlink:href="#DejaVuSans-53"/>
     </g>
    </g>
    <g id="line2d_35">
     <path d="M 333.15625 106.370938 
L 353.15625 106.370938 
" style="fill:none;stroke:#9467bd;stroke-linecap:square;stroke-width:1.5;"/>
    </g>
    <g id="line2d_36"/>
    <g id="text_20">
     <!-- x16 -->
     <g transform="translate(361.15625 109.870938)scale(0.1 -0.1)">
      <use xlink:href="#DejaVuSans-120"/>
      <use x="59.179688" xlink:href="#DejaVuSans-49"/>
      <use x="122.802734" xlink:href="#DejaVuSans-54"/>
     </g>
    </g>
    <g id="line2d_37">
     <path d="M 333.15625 121.049062 
L 353.15625 121.049062 
" style="fill:none;stroke:#8c564b;stroke-linecap:square;stroke-width:1.5;"/>
    </g>
    <g id="line2d_38"/>
    <g id="text_21">
     <!-- x17 -->
     <defs>
      <path d="M 8.203125 72.90625 
L 55.078125 72.90625 
L 55.078125 68.703125 
L 28.609375 0 
L 18.3125 0 
L 43.21875 64.59375 
L 8.203125 64.59375 
z
" id="DejaVuSans-55"/>
     </defs>
     <g transform="translate(361.15625 124.549062)scale(0.1 -0.1)">
      <use xlink:href="#DejaVuSans-120"/>
      <use x="59.179688" xlink:href="#DejaVuSans-49"/>
      <use x="122.802734" xlink:href="#DejaVuSans-55"/>
     </g>
    </g>
    <g id="line2d_39">
     <path d="M 333.15625 135.727188 
L 353.15625 135.727188 
" style="fill:none;stroke:#e377c2;stroke-linecap:square;stroke-width:1.5;"/>
    </g>
    <g id="line2d_40"/>
    <g id="text_22">
     <!-- x18 -->
     <g transform="translate(361.15625 139.227188)scale(0.1 -0.1)">
      <use xlink:href="#DejaVuSans-120"/>
      <use x="59.179688" xlink:href="#DejaVuSans-49"/>
      <use x="122.802734" xlink:href="#DejaVuSans-56"/>
     </g>
    </g>
    <g id="line2d_41">
     <path d="M 333.15625 150.405312 
L 353.15625 150.405312 
" style="fill:none;stroke:#7f7f7f;stroke-linecap:square;stroke-width:1.5;"/>
    </g>
    <g id="line2d_42"/>
    <g id="text_23">
     <!-- x19 -->
     <defs>
      <path d="M 10.984375 1.515625 
L 10.984375 10.5 
Q 14.703125 8.734375 18.5 7.8125 
Q 22.3125 6.890625 25.984375 6.890625 
Q 35.75 6.890625 40.890625 13.453125 
Q 46.046875 20.015625 46.78125 33.40625 
Q 43.953125 29.203125 39.59375 26.953125 
Q 35.25 24.703125 29.984375 24.703125 
Q 19.046875 24.703125 12.671875 31.3125 
Q 6.296875 37.9375 6.296875 49.421875 
Q 6.296875 60.640625 12.9375 67.421875 
Q 19.578125 74.21875 30.609375 74.21875 
Q 43.265625 74.21875 49.921875 64.515625 
Q 56.59375 54.828125 56.59375 36.375 
Q 56.59375 19.140625 48.40625 8.859375 
Q 40.234375 -1.421875 26.421875 -1.421875 
Q 22.703125 -1.421875 18.890625 -0.6875 
Q 15.09375 0.046875 10.984375 1.515625 
z
M 30.609375 32.421875 
Q 37.25 32.421875 41.125 36.953125 
Q 45.015625 41.5 45.015625 49.421875 
Q 45.015625 57.28125 41.125 61.84375 
Q 37.25 66.40625 30.609375 66.40625 
Q 23.96875 66.40625 20.09375 61.84375 
Q 16.21875 57.28125 16.21875 49.421875 
Q 16.21875 41.5 20.09375 36.953125 
Q 23.96875 32.421875 30.609375 32.421875 
z
" id="DejaVuSans-57"/>
     </defs>
     <g transform="translate(361.15625 153.905312)scale(0.1 -0.1)">
      <use xlink:href="#DejaVuSans-120"/>
      <use x="59.179688" xlink:href="#DejaVuSans-49"/>
      <use x="122.802734" xlink:href="#DejaVuSans-57"/>
     </g>
    </g>
    <g id="line2d_43">
     <path d="M 333.15625 165.083438 
L 353.15625 165.083438 
" style="fill:none;stroke:#bcbd22;stroke-linecap:square;stroke-width:1.5;"/>
    </g>
    <g id="line2d_44"/>
    <g id="text_24">
     <!-- x20 -->
     <g transform="translate(361.15625 168.583438)scale(0.1 -0.1)">
      <use xlink:href="#DejaVuSans-120"/>
      <use x="59.179688" xlink:href="#DejaVuSans-50"/>
      <use x="122.802734" xlink:href="#DejaVuSans-48"/>
     </g>
    </g>
    <g id="line2d_45">
     <path d="M 333.15625 179.761562 
L 353.15625 179.761562 
" style="fill:none;stroke:#17becf;stroke-linecap:square;stroke-width:1.5;"/>
    </g>
    <g id="line2d_46"/>
    <g id="text_25">
     <!-- x21 -->
     <g transform="translate(361.15625 183.261562)scale(0.1 -0.1)">
      <use xlink:href="#DejaVuSans-120"/>
      <use x="59.179688" xlink:href="#DejaVuSans-50"/>
      <use x="122.802734" xlink:href="#DejaVuSans-49"/>
     </g>
    </g>
    <g id="line2d_47">
     <path d="M 333.15625 194.439687 
L 353.15625 194.439687 
" style="fill:none;stroke:#1f77b4;stroke-linecap:square;stroke-width:1.5;"/>
    </g>
    <g id="line2d_48"/>
    <g id="text_26">
     <!-- x22 -->
     <g transform="translate(361.15625 197.939687)scale(0.1 -0.1)">
      <use xlink:href="#DejaVuSans-120"/>
      <use x="59.179688" xlink:href="#DejaVuSans-50"/>
      <use x="122.802734" xlink:href="#DejaVuSans-50"/>
     </g>
    </g>
    <g id="line2d_49">
     <path d="M 333.15625 209.117812 
L 353.15625 209.117812 
" style="fill:none;stroke:#ff7f0e;stroke-linecap:square;stroke-width:1.5;"/>
    </g>
    <g id="line2d_50"/>
    <g id="text_27">
     <!-- x23 -->
     <g transform="translate(361.15625 212.617812)scale(0.1 -0.1)">
      <use xlink:href="#DejaVuSans-120"/>
      <use x="59.179688" xlink:href="#DejaVuSans-50"/>
      <use x="122.802734" xlink:href="#DejaVuSans-51"/>
     </g>
    </g>
   </g>
  </g>
 </g>
 <defs>
  <clipPath id="p8da49d1268">
   <rect height="217.44" width="334.8" x="54" y="34.56"/>
  </clipPath>
 </defs>
</svg>
